<svg width="240" height="91" viewBox="0 0 240 91" fill="none" xmlns="http://www.w3.org/2000/svg">
<path d="M46.3972 21.8967H55.6949C58.865 21.8967 61.432 24.4711 61.432 27.6502C61.432 30.8293 58.865 33.4037 55.6949 33.4037H25.723C22.5529 33.4037 19.9858 35.9781 19.9858 39.1572C19.9858 42.3363 22.5529 44.9107 25.723 44.9107H40.0744C43.2444 44.9107 45.8115 47.4851 45.8115 50.6642C45.8115 53.8433 43.2444 56.4177 40.0744 56.4177H25.723C22.5529 56.4177 19.9858 58.9921 19.9858 62.1712C19.9858 65.3504 22.5529 67.9248 25.723 67.9248H49.3204C52.4904 67.9248 55.0575 70.4991 55.0575 73.6783C55.0575 76.8574 52.4904 79.4318 49.3204 79.4318H42.6242C39.4541 79.4318 36.8871 82.0062 36.8871 85.1853C36.8871 88.3644 39.4541 90.9388 42.6242 90.9388H207.875C211.045 90.9388 213.612 88.3644 213.612 85.1853C213.612 82.0062 211.045 79.4318 207.875 79.4318H195.04C191.87 79.4318 189.303 76.8574 189.303 73.6783C189.303 70.4991 191.87 67.9248 195.04 67.9248H207.875C211.045 67.9248 213.612 65.3504 213.612 62.1712C213.612 58.9921 211.045 56.4177 207.875 56.4177H185.11C181.94 56.4177 179.373 53.8433 179.373 50.6642C179.373 47.4851 181.94 44.9107 185.11 44.9107H191.852C195.022 44.9107 197.589 42.3363 197.589 39.1572C197.589 35.9781 195.022 33.4037 191.852 33.4037H181.647C178.477 33.4037 175.91 30.8293 175.91 27.6502C175.91 24.4711 178.477 21.8967 181.647 21.8967H207.875C211.045 21.8967 213.612 19.3223 213.612 16.1432C213.612 12.964 211.045 10.3896 207.875 10.3896H46.3972C43.2272 10.3896 40.6601 12.964 40.6601 16.1432C40.6601 19.3223 43.2272 21.8967 46.3972 21.8967Z" fill="#EAF0FF"/>
<path d="M5.95534 33.4094H5.73712C2.56859 33.4094 0 35.9854 0 39.1629V39.3818C0 42.5594 2.56859 45.1353 5.73712 45.1353H5.95534C9.12387 45.1353 11.6925 42.5594 11.6925 39.3818V39.1629C11.6925 35.9854 9.12387 33.4094 5.95534 33.4094Z" fill="#EAF0FF"/>
<path d="M234.263 56.3254H234.045C230.876 56.3254 228.308 58.9014 228.308 62.0789V62.2978C228.308 65.4754 230.876 68.0513 234.045 68.0513H234.263C237.431 68.0513 240 65.4754 240 62.2978V62.0789C240 58.9014 237.431 56.3254 234.263 56.3254Z" fill="#EAF0FF"/>
<path d="M201.891 50.6757H190.411V62.1884H201.891V50.6757Z" fill="#95B8FF"/>
<path d="M76.6903 0H61.064V15.4406H76.6903V0Z" fill="#95B8FF"/>
<path d="M47.0345 71.8354H31.4082V87.276H47.0345V71.8354Z" fill="#95B8FF"/>
<path d="M165.136 84.3847V28.0878C165.136 25.9799 163.436 24.2751 161.334 24.2751H75.7999C73.698 24.2751 71.9981 25.9799 71.9981 28.0878V84.3847H61.7012C61.7012 87.6847 64.3659 90.357 67.6565 90.357H169.477C172.768 90.357 175.433 87.6847 175.433 84.3847H165.136Z" fill="white"/>
<path d="M169.478 90.9331H67.6576C64.0568 90.9331 61.1279 87.9958 61.1279 84.3848V83.8088H129.985C130.301 83.8088 130.559 84.068 130.559 84.3848C130.559 84.7015 130.301 84.9607 129.985 84.9607H62.3052C62.5924 87.6675 64.8838 89.7812 67.6576 89.7812H169.478C172.252 89.7812 174.544 87.6675 174.831 84.9607H147.277C146.961 84.9607 146.702 84.7015 146.702 84.3848C146.702 84.068 146.961 83.8088 147.277 83.8088H176.008V84.3848C176.008 87.9958 173.079 90.9331 169.478 90.9331Z" fill="#5E5E5E"/>
<path d="M143.848 84.9607H139.805C139.489 84.9607 139.23 84.7015 139.23 84.3848C139.23 84.068 139.489 83.8088 139.805 83.8088H143.848C144.164 83.8088 144.422 84.068 144.422 84.3848C144.422 84.7015 144.164 84.9607 143.848 84.9607Z" fill="#5E5E5E"/>
<path d="M165.136 84.9601C164.82 84.9601 164.562 84.7009 164.562 84.3842V28.0873C164.562 26.3019 163.114 24.8506 161.334 24.8506H75.7999C74.0196 24.8506 72.5724 26.3019 72.5724 28.0873V84.3842C72.5724 84.7009 72.314 84.9601 71.9981 84.9601C71.6823 84.9601 71.4238 84.7009 71.4238 84.3842V28.0873C71.4238 25.6684 73.3879 23.6987 75.7999 23.6987H161.34C163.752 23.6987 165.716 25.6684 165.716 28.0873V84.3842C165.716 84.7009 165.457 84.9601 165.142 84.9601H165.136Z" fill="#5E5E5E"/>
<path d="M157.596 80.1288C157.28 80.1288 157.022 79.8696 157.022 79.5529V34.0028C157.022 32.5572 155.85 31.3823 154.409 31.3823H82.7205C81.2791 31.3823 80.1076 32.5572 80.1076 34.0028V79.5529C80.1076 79.8696 79.8491 80.1288 79.5333 80.1288C79.2174 80.1288 78.959 79.8696 78.959 79.5529V34.0028C78.959 31.9237 80.6474 30.2305 82.7205 30.2305H154.409C156.482 30.2305 158.17 31.9237 158.17 34.0028V79.5529C158.17 79.8696 157.912 80.1288 157.596 80.1288Z" fill="#5E5E5E"/>
<path d="M56.726 55.1884L35.7622 65.5151L42.7705 79.8238L63.7343 69.4971L56.726 55.1884Z" fill="white"/>
<path d="M42.7723 80.3997C42.7091 80.3997 42.646 80.3882 42.5885 80.3709C42.445 80.3191 42.3244 80.2154 42.2612 80.0772L35.2549 65.7712C35.1171 65.4832 35.2319 65.1434 35.5191 64.9994L56.4805 54.6731C56.6183 54.604 56.7734 54.5924 56.917 54.6443C57.0605 54.6961 57.1811 54.7998 57.2443 54.938L64.2506 69.244C64.3884 69.532 64.2736 69.8718 63.9864 70.0158L43.025 80.3421C42.9446 80.3825 42.8585 80.3997 42.7723 80.3997ZM36.5298 65.7769L43.0307 79.0521L62.9585 69.2325L56.4575 55.9574L36.5241 65.7769H36.5298Z" fill="#5E5E5E"/>
<path d="M41.5079 50.6758L35.7593 65.5117L50.0131 67.0321L56.7207 55.1853L41.5079 50.6758Z" fill="white"/>
<path d="M56.1645 68.9902C56.1645 68.9902 56.1128 68.9902 56.0841 68.9902L35.6855 66.0875C35.5132 66.0645 35.3581 65.9608 35.272 65.8111C35.1859 65.6613 35.1686 65.477 35.2318 65.31L40.9747 50.4741C41.0838 50.1977 41.3881 50.0479 41.6753 50.1286L56.8939 54.6381C57.0604 54.6899 57.1982 54.8109 57.2614 54.9721C57.3246 55.1334 57.3131 55.3177 57.227 55.4732L50.6686 67.0551L56.2507 67.8498C56.5665 67.8959 56.7848 68.1839 56.7388 68.5006C56.6986 68.7886 56.4517 68.9959 56.1703 68.9959L56.1645 68.9902ZM36.5584 65.0393L49.4569 66.8765C49.4684 66.8305 49.4856 66.7901 49.5085 66.7441L55.8601 55.525L41.8418 51.3726L36.5527 65.0393H36.5584Z" fill="#5E5E5E"/>
<path d="M58.5284 23.5136L45.1943 17.3036L40.9807 26.4029L54.3147 32.6129L58.5284 23.5136Z" fill="white"/>
<path d="M54.3105 33.1966C54.2301 33.1966 54.144 33.1794 54.0693 33.1448L40.7344 26.9363C40.5966 26.873 40.4875 26.7578 40.4358 26.6138C40.3841 26.4698 40.3898 26.3143 40.453 26.1761L44.6683 17.0764C44.8003 16.7885 45.1449 16.6618 45.4321 16.7942L58.767 23.0027C59.0541 23.1352 59.1805 23.4808 59.0484 23.7687L54.8331 32.8684C54.7699 33.0066 54.6551 33.116 54.5115 33.1678C54.4483 33.1909 54.3794 33.2024 54.3163 33.2024L54.3105 33.1966ZM41.7394 26.13L54.0291 31.8547L57.762 23.7975L45.4723 18.0728L41.7394 26.13Z" fill="#5E5E5E"/>
<path d="M54.7068 14.2598L45.1909 17.3064L50.0838 24.9087L58.5258 23.5207L54.7068 14.2598Z" fill="white"/>
<path d="M51.8414 29.0494C51.6462 29.0494 51.4566 28.9515 51.3475 28.7672L44.6973 17.6C44.6054 17.4503 44.5882 17.266 44.6514 17.099C44.7145 16.9319 44.8466 16.8052 45.0131 16.7534L54.5291 13.7067C54.8162 13.6146 55.1206 13.7586 55.2354 14.035L59.0544 23.2902C59.1234 23.4514 59.1119 23.6357 59.0257 23.7912C58.9396 23.9467 58.7903 24.0504 58.618 24.0792L50.6756 25.3865L52.3353 28.174C52.4961 28.4447 52.41 28.8018 52.1343 28.9631C52.0424 29.0206 51.939 29.0437 51.8414 29.0437V29.0494ZM46.0526 17.6346L50.0382 24.3326L57.7106 23.0713L54.374 14.9738L46.0526 17.6403V17.6346Z" fill="#5E5E5E"/>
<path d="M36.7315 62.5571C36.6396 62.5571 36.5477 62.5341 36.4673 62.4938C36.341 62.4247 36.2204 62.3613 36.094 62.2922C35.8184 62.1367 35.7208 61.7854 35.8758 61.5089C36.0309 61.2325 36.3812 61.1346 36.6569 61.2901C36.766 61.3534 36.8808 61.4168 36.9957 61.4744C37.2771 61.6241 37.3862 61.9697 37.2369 62.2519C37.1335 62.4477 36.9325 62.5629 36.7258 62.5629L36.7315 62.5571ZM33.6935 60.2246C33.5385 60.2246 33.3777 60.1613 33.2686 60.0346C32.8608 59.5796 32.4933 59.09 32.1717 58.5717C32.0051 58.301 32.0855 57.9439 32.3554 57.7769C32.6254 57.6099 32.9814 57.6905 33.148 57.9612C33.4294 58.4162 33.7567 58.8539 34.1185 59.2571C34.331 59.4932 34.3138 59.856 34.0783 60.0691C33.9692 60.167 33.8314 60.2189 33.6935 60.2189V60.2246ZM31.4021 55.646C31.1322 55.646 30.8968 55.4559 30.8393 55.1853C30.7187 54.5978 30.6498 53.9873 30.6268 53.3768C30.6154 53.0601 30.8623 52.7894 31.1782 52.7836C31.5055 52.7664 31.7639 53.0198 31.7697 53.3365C31.7869 53.8837 31.8501 54.4308 31.9592 54.9549C32.0224 55.2659 31.8214 55.5711 31.5112 55.6345C31.471 55.6402 31.4366 55.646 31.3964 55.646H31.4021ZM31.6089 50.5145C31.5572 50.5145 31.5055 50.5087 31.4538 50.4914C31.1494 50.4051 30.9657 50.0883 31.0518 49.7831C31.2126 49.2014 31.4136 48.6312 31.6548 48.0783C31.7812 47.7846 32.12 47.6521 32.4129 47.7788C32.7058 47.9055 32.8378 48.2453 32.7115 48.5391C32.4933 49.0401 32.3095 49.5642 32.1659 50.0883C32.097 50.3417 31.8673 50.5087 31.6146 50.5087L31.6089 50.5145ZM62.6663 47.7961C62.3561 47.7961 62.0403 47.7788 61.7302 47.75C61.4143 47.7155 61.1846 47.4333 61.2191 47.1165C61.2535 46.7998 61.5292 46.5636 61.8508 46.6039C62.3791 46.6558 62.9247 46.6615 63.453 46.6039C63.7746 46.5751 64.0503 46.8055 64.079 47.1223C64.1077 47.439 63.878 47.7212 63.5621 47.75C63.2635 47.7788 62.9591 47.7961 62.6605 47.7961H62.6663ZM66.8011 46.794C66.5886 46.794 66.3819 46.6731 66.2843 46.4715C66.1464 46.1835 66.2613 45.838 66.5484 45.6997C67.0251 45.4694 67.5017 45.1872 67.9669 44.8704C68.2311 44.6919 68.5871 44.761 68.7652 45.0259C68.9432 45.2908 68.8743 45.6479 68.6101 45.8264C68.099 46.172 67.5764 46.4772 67.0538 46.7364C66.9734 46.7767 66.8873 46.794 66.8011 46.794ZM58.5027 46.7767C58.4165 46.7767 58.3304 46.7594 58.25 46.7191C57.7274 46.4657 57.2048 46.1547 56.6937 45.8092C56.4295 45.6306 56.3606 45.2735 56.5386 45.0086C56.7167 44.7437 57.0727 44.6746 57.3369 44.8531C57.8078 45.1699 58.2845 45.4521 58.7554 45.6825C59.0425 45.8207 59.1574 46.1662 59.0195 46.4542C58.9219 46.6558 58.7152 46.7767 58.5027 46.7767ZM33.9922 45.9589C33.8601 45.9589 33.7337 45.9128 33.6246 45.8264C33.3834 45.6249 33.349 45.262 33.55 45.0144C33.9347 44.5536 34.3597 44.1159 34.8076 43.7128C35.0431 43.4997 35.4049 43.5227 35.6174 43.7589C35.8299 43.995 35.8069 44.3578 35.5714 44.5709C35.1637 44.9337 34.7847 45.3311 34.4344 45.7516C34.3195 45.8898 34.1587 45.9589 33.9922 45.9589ZM54.1611 43.9835C54.0577 43.9835 53.9543 43.9547 53.8567 43.8971C53.3571 43.5861 52.8689 43.2924 52.398 43.0274C52.1224 42.8719 52.0247 42.5206 52.1798 42.2442C52.3349 41.9677 52.6852 41.8698 52.9608 42.0253C53.4432 42.296 53.9486 42.6012 54.4655 42.9238C54.7354 43.0908 54.8158 43.4479 54.6492 43.7185C54.5401 43.8913 54.3506 43.9892 54.1611 43.9892V43.9835ZM70.9015 43.6782C70.7637 43.6782 70.6201 43.6264 70.511 43.5227C70.2813 43.3039 70.2641 42.941 70.4823 42.7107C71.1542 41.9908 71.5275 41.4494 71.5332 41.4436C71.7113 41.1845 72.0731 41.1154 72.3315 41.2997C72.5899 41.4782 72.6588 41.841 72.4808 42.1002C72.4636 42.1232 72.0616 42.7107 71.3265 43.4997C71.2116 43.6206 71.0623 43.684 70.9073 43.684L70.9015 43.6782ZM38.0351 42.7798C37.8341 42.7798 37.6389 42.6761 37.5355 42.4861C37.3805 42.2096 37.4781 41.8583 37.7537 41.7028C38.2936 41.3976 38.8219 41.1269 39.3215 40.8907C39.6087 40.7583 39.9533 40.8792 40.0853 41.1729C40.2174 41.4609 40.0968 41.8065 39.8039 41.9389C39.3273 42.1578 38.8276 42.4227 38.3108 42.7107C38.2246 42.7625 38.127 42.7855 38.0294 42.7855L38.0351 42.7798ZM49.5783 41.6164C49.5094 41.6164 49.4405 41.6049 49.3715 41.5761C48.8317 41.3688 48.3034 41.196 47.7923 41.0635C47.4879 40.9829 47.3041 40.6661 47.3845 40.3609C47.4649 40.0556 47.775 39.8714 48.0851 39.952C48.6365 40.096 49.205 40.2803 49.785 40.5049C50.0837 40.6201 50.2272 40.9541 50.1181 41.2478C50.032 41.4782 49.8137 41.6164 49.584 41.6164H49.5783ZM42.8247 40.8907C42.5548 40.8907 42.3136 40.7007 42.2619 40.4242C42.1987 40.1132 42.4054 39.808 42.7156 39.7504C43.3128 39.6352 43.9216 39.5604 44.5131 39.5373C44.8462 39.5143 45.0989 39.7734 45.1103 40.0902C45.1218 40.407 44.8749 40.6777 44.559 40.6892C44.0249 40.7122 43.4794 40.7756 42.9395 40.8792C42.8993 40.885 42.8649 40.8907 42.8304 40.8907H42.8247Z" fill="#5E5E5E"/>
<path d="M71.9982 72.411C71.8834 72.411 71.7628 72.3765 71.6594 72.3016C71.6364 72.2843 71.0909 71.8869 70.2811 71.1728C70.0399 70.9655 70.0169 70.5969 70.2237 70.3607C70.4304 70.1188 70.798 70.0958 71.0334 70.3031C71.8087 70.9827 72.3313 71.3628 72.3371 71.3686C72.5955 71.5587 72.6472 71.9157 72.4634 72.1749C72.3485 72.3304 72.1763 72.411 71.9982 72.411ZM68.1965 68.8921C68.0414 68.8921 67.8864 68.8288 67.7715 68.7021C67.3695 68.2586 66.9847 67.8094 66.6287 67.3602C66.4334 67.1125 66.4736 66.7497 66.7205 66.5481C66.9675 66.3523 67.3293 66.3926 67.5303 66.6402C67.8749 67.0722 68.2424 67.5041 68.6272 67.9303C68.8397 68.1665 68.8224 68.5293 68.587 68.7424C68.4779 68.8403 68.34 68.8921 68.2022 68.8921H68.1965ZM65.1413 64.7167C64.9403 64.7167 64.745 64.613 64.6416 64.4229C64.343 63.8873 64.0788 63.3517 63.8491 62.8218C63.7228 62.5281 63.8606 62.1883 64.1477 62.0674C64.4406 61.9407 64.7795 62.0789 64.9001 62.3669C65.1125 62.8564 65.3595 63.3632 65.6409 63.8585C65.796 64.135 65.6983 64.4863 65.4227 64.6418C65.3365 64.6936 65.2389 64.7167 65.1413 64.7167ZM63.4356 59.8558C63.1542 59.8558 62.9073 59.6427 62.8671 59.3548C62.8039 58.871 62.7695 58.3872 62.7695 57.915C62.7695 57.7882 62.7695 57.6615 62.7752 57.5348C62.7867 57.2181 63.0509 56.9704 63.3667 56.982C63.6826 56.9935 63.9295 57.2584 63.918 57.5752C63.918 57.6903 63.9123 57.7998 63.9123 57.915C63.9123 58.3354 63.941 58.7673 63.9984 59.1993C64.0386 59.516 63.8204 59.804 63.5045 59.8443C63.4816 59.8443 63.4529 59.8443 63.4299 59.8443L63.4356 59.8558ZM64.0271 54.7589C63.9755 54.7589 63.918 54.7531 63.8663 54.7358C63.562 54.6494 63.3839 54.3269 63.4758 54.0217C63.6309 53.4746 63.7859 52.9217 63.9353 52.3688C64.0157 52.0635 64.3315 51.8792 64.6416 51.9599C64.946 52.0405 65.1298 52.3573 65.0494 52.6683C64.9001 53.2327 64.7393 53.7913 64.5842 54.3442C64.5095 54.5976 64.2798 54.7589 64.0329 54.7589H64.0271ZM65.2848 49.731C65.2504 49.731 65.2102 49.731 65.1757 49.7195C64.8656 49.6562 64.6646 49.3567 64.722 49.0457C64.8369 48.4698 64.9288 47.9111 65.0092 47.3697C65.0551 47.053 65.348 46.8399 65.6581 46.8802C65.974 46.9263 66.1922 47.22 66.1463 47.531C66.0659 48.0896 65.9682 48.6713 65.8476 49.2645C65.796 49.541 65.5547 49.731 65.2848 49.731ZM65.8361 44.588C65.5203 44.588 65.2619 44.3288 65.2619 44.0121C65.2619 43.4419 65.2331 42.8775 65.1872 42.3419C65.1585 42.0251 65.3882 41.7429 65.7041 41.7141C66.0199 41.6853 66.3013 41.9157 66.33 42.2325C66.3817 42.8084 66.4104 43.4074 66.4104 44.0121C66.4104 44.3288 66.152 44.588 65.8361 44.588ZM65.0609 39.4853C64.8197 39.4853 64.5957 39.3298 64.5153 39.0879C64.343 38.5638 64.1363 38.0455 63.9008 37.5559C63.763 37.268 63.8836 36.9224 64.1707 36.79C64.4579 36.6517 64.8024 36.7727 64.9345 37.0606C65.1872 37.5962 65.4169 38.1607 65.6007 38.7251C65.6983 39.0245 65.5375 39.3528 65.2389 39.4507C65.1815 39.468 65.1183 39.4795 65.0551 39.4795L65.0609 39.4853ZM62.5742 34.9758C62.4077 34.9758 62.2411 34.9009 62.1263 34.7627C61.7817 34.3423 61.4084 33.9276 61.0121 33.5302C60.7882 33.3056 60.7882 32.9428 61.0121 32.7181C61.2361 32.4935 61.5979 32.4935 61.8219 32.7181C62.2469 33.1443 62.6489 33.5878 63.0164 34.0428C63.2174 34.2904 63.1772 34.6533 62.936 34.8548C62.8269 34.9412 62.7005 34.9815 62.5742 34.9815V34.9758ZM58.7667 31.4972C58.6518 31.4972 58.537 31.4626 58.4393 31.3935C57.9971 31.0825 57.5205 30.7715 57.0266 30.4778C56.7567 30.3108 56.6705 29.9595 56.8313 29.6888C56.9979 29.4181 57.3482 29.3317 57.6181 29.493C58.135 29.804 58.6289 30.1265 59.094 30.4548C59.3525 30.6391 59.4156 30.9961 59.2376 31.2553C59.1285 31.4166 58.9505 31.5029 58.7667 31.5029V31.4972Z" fill="#5E5E5E"/>
<path d="M133.493 5.79993H93.3675C91.6044 5.79993 90.1802 7.23399 90.1802 8.99632V74.5311C90.1802 76.2992 91.6101 77.7275 93.3675 77.7275H143.761C145.524 77.7275 146.948 76.2934 146.948 74.5311V19.1269L133.493 5.79993Z" fill="white"/>
<path d="M143.767 78.3086H93.3733C91.3001 78.3086 89.6117 76.6154 89.6117 74.5363V63.8471C89.6117 63.5304 89.8701 63.2712 90.186 63.2712C90.5018 63.2712 90.7603 63.5304 90.7603 63.8471V74.5363C90.7603 75.9819 91.9318 77.1568 93.3733 77.1568H143.767C145.208 77.1568 146.38 75.9819 146.38 74.5363V19.3625L133.602 6.37536H93.3675C91.9261 6.37536 90.7545 7.55026 90.7545 8.99583V60.1266C90.7545 60.4434 90.4961 60.7026 90.1802 60.7026C89.8644 60.7026 89.606 60.4434 89.606 60.1266V8.99583C89.606 6.91674 91.2944 5.22351 93.3675 5.22351H133.837C133.993 5.22351 134.136 5.28686 134.245 5.39629L147.356 18.7232C147.46 18.8327 147.523 18.9766 147.523 19.1264V74.5306C147.523 76.6097 145.834 78.3029 143.761 78.3029L143.767 78.3086Z" fill="#5E5E5E"/>
<path d="M146.954 19.703H141.096C140.78 19.703 140.522 19.4438 140.522 19.1271C140.522 18.8103 140.78 18.5511 141.096 18.5511H146.954C147.27 18.5511 147.528 18.8103 147.528 19.1271C147.528 19.4438 147.27 19.703 146.954 19.703Z" fill="#5E5E5E"/>
<path d="M137.697 19.7024H133.843C133.527 19.7024 133.269 19.4433 133.269 19.1265V5.79956C133.269 5.4828 133.527 5.22363 133.843 5.22363C134.159 5.22363 134.418 5.4828 134.418 5.79956V18.5506H137.697C138.013 18.5506 138.271 18.8097 138.271 19.1265C138.271 19.4433 138.013 19.7024 137.697 19.7024Z" fill="#5E5E5E"/>
<path d="M139.477 60.1266H98.9897V63.2078H139.477V60.1266Z" fill="#95B8FF"/>
<path d="M139.477 28.0417H121.324V38.1493H139.477V28.0417Z" fill="#EAF0FF"/>
<path d="M114.645 19.6046H97.8819C97.566 19.6046 97.3076 19.3454 97.3076 19.0287C97.3076 18.7119 97.566 18.4528 97.8819 18.4528H114.645C114.961 18.4528 115.22 18.7119 115.22 19.0287C115.22 19.3454 114.961 19.6046 114.645 19.6046Z" fill="#5E5E5E"/>
<path d="M140.868 26.7404H112.59C112.274 26.7404 112.016 26.4812 112.016 26.1644C112.016 25.8477 112.274 25.5885 112.59 25.5885H140.868C141.184 25.5885 141.442 25.8477 141.442 26.1644C141.442 26.4812 141.184 26.7404 140.868 26.7404Z" fill="#5E5E5E"/>
<path d="M107.823 26.7404H97.8878C97.5719 26.7404 97.3135 26.4812 97.3135 26.1644C97.3135 25.8477 97.5719 25.5885 97.8878 25.5885H107.823C108.139 25.5885 108.397 25.8477 108.397 26.1644C108.397 26.4812 108.139 26.7404 107.823 26.7404Z" fill="#5E5E5E"/>
<path d="M140.867 33.8759H97.8819C97.566 33.8759 97.3076 33.6167 97.3076 33.2999C97.3076 32.9832 97.566 32.724 97.8819 32.724H140.867C141.183 32.724 141.441 32.9832 141.441 33.2999C141.441 33.6167 141.183 33.8759 140.867 33.8759Z" fill="#5E5E5E"/>
<path d="M140.867 41.0059H97.8819C97.566 41.0059 97.3076 40.7467 97.3076 40.4299C97.3076 40.1132 97.566 39.854 97.8819 39.854H140.867C141.183 39.854 141.441 40.1132 141.441 40.4299C141.441 40.7467 141.183 41.0059 140.867 41.0059Z" fill="#5E5E5E"/>
<path d="M133.815 48.1418H97.8878C97.5719 48.1418 97.3135 47.8827 97.3135 47.5659C97.3135 47.2492 97.5719 46.99 97.8878 46.99H133.815C134.131 46.99 134.389 47.2492 134.389 47.5659C134.389 47.8827 134.131 48.1418 133.815 48.1418Z" fill="#5E5E5E"/>
<path d="M138.536 50.3018C137.031 50.3018 135.808 49.075 135.808 47.5661C135.808 46.0572 137.031 44.8304 138.536 44.8304C140.041 44.8304 141.264 46.0572 141.264 47.5661C141.264 49.075 140.041 50.3018 138.536 50.3018ZM138.536 45.9881C137.669 45.9881 136.957 46.6964 136.957 47.5719C136.957 48.4473 137.663 49.1557 138.536 49.1557C139.409 49.1557 140.115 48.4473 140.115 47.5719C140.115 46.6964 139.409 45.9881 138.536 45.9881Z" fill="#5E5E5E"/>
<path d="M140.867 70.6836H139.23C138.914 70.6836 138.656 70.4244 138.656 70.1077C138.656 69.7909 138.914 69.5317 139.23 69.5317H140.867C141.183 69.5317 141.441 69.7909 141.441 70.1077C141.441 70.4244 141.183 70.6836 140.867 70.6836ZM135.784 70.6836H134.061C133.746 70.6836 133.487 70.4244 133.487 70.1077C133.487 69.7909 133.746 69.5317 134.061 69.5317H135.784C136.1 69.5317 136.359 69.7909 136.359 70.1077C136.359 70.4244 136.1 70.6836 135.784 70.6836ZM130.616 70.6836H128.893C128.577 70.6836 128.319 70.4244 128.319 70.1077C128.319 69.7909 128.577 69.5317 128.893 69.5317H130.616C130.932 69.5317 131.19 69.7909 131.19 70.1077C131.19 70.4244 130.932 70.6836 130.616 70.6836ZM125.447 70.6836H123.724C123.408 70.6836 123.15 70.4244 123.15 70.1077C123.15 69.7909 123.408 69.5317 123.724 69.5317H125.447C125.763 69.5317 126.021 69.7909 126.021 70.1077C126.021 70.4244 125.763 70.6836 125.447 70.6836ZM120.279 70.6836H118.556C118.24 70.6836 117.981 70.4244 117.981 70.1077C117.981 69.7909 118.24 69.5317 118.556 69.5317H120.279C120.594 69.5317 120.853 69.7909 120.853 70.1077C120.853 70.4244 120.594 70.6836 120.279 70.6836ZM115.11 70.6836H113.387C113.071 70.6836 112.813 70.4244 112.813 70.1077C112.813 69.7909 113.071 69.5317 113.387 69.5317H115.11C115.426 69.5317 115.684 69.7909 115.684 70.1077C115.684 70.4244 115.426 70.6836 115.11 70.6836ZM109.941 70.6836H108.219C107.903 70.6836 107.644 70.4244 107.644 70.1077C107.644 69.7909 107.903 69.5317 108.219 69.5317H109.941C110.257 69.5317 110.516 69.7909 110.516 70.1077C110.516 70.4244 110.257 70.6836 109.941 70.6836ZM104.773 70.6836H103.05C102.734 70.6836 102.476 70.4244 102.476 70.1077C102.476 69.7909 102.734 69.5317 103.05 69.5317H104.773C105.089 69.5317 105.347 69.7909 105.347 70.1077C105.347 70.4244 105.089 70.6836 104.773 70.6836ZM99.6043 70.6836H97.8814C97.5656 70.6836 97.3071 70.4244 97.3071 70.1077C97.3071 69.7909 97.5656 69.5317 97.8814 69.5317H99.6043C99.9201 69.5317 100.179 69.7909 100.179 70.1077C100.179 70.4244 99.9201 70.6836 99.6043 70.6836Z" fill="#5E5E5E"/>
<path d="M137.864 67.5795C137.714 67.5795 137.571 67.522 137.456 67.4125L133.017 62.9606C132.793 62.736 132.793 62.3732 133.017 62.1486C133.241 61.9239 133.602 61.9239 133.826 62.1486L138.266 66.6005C138.49 66.8251 138.49 67.1879 138.266 67.4125C138.151 67.5277 138.007 67.5795 137.858 67.5795H137.864Z" fill="#5E5E5E"/>
<path d="M133.424 67.5795C133.275 67.5795 133.131 67.5219 133.017 67.4125C132.793 67.1879 132.793 66.825 133.017 66.6004L137.634 61.97C137.858 61.7454 138.22 61.7454 138.444 61.97C138.668 62.1946 138.668 62.5574 138.444 62.782L133.826 67.4125C133.711 67.5277 133.568 67.5795 133.419 67.5795H133.424Z" fill="#5E5E5E"/>
<path d="M207.434 23.0366L184.992 5.91614L173.372 21.2351L195.814 38.3556L207.434 23.0366Z" fill="white"/>
<path d="M195.82 38.9211C195.7 38.9211 195.579 38.8808 195.476 38.8059L173.033 21.6893C172.78 21.4993 172.734 21.1364 172.923 20.883L176.22 16.5348C176.409 16.2814 176.771 16.2296 177.024 16.4254C177.277 16.6154 177.323 16.9783 177.133 17.2317L174.181 21.1249L195.711 37.5446L206.634 23.1407L185.104 6.721L180.429 12.8834C180.24 13.1368 179.878 13.1887 179.625 12.9928C179.373 12.8028 179.327 12.44 179.516 12.1865L184.536 5.56914C184.725 5.31573 185.087 5.2639 185.34 5.45972L207.783 22.5763C207.903 22.6684 207.984 22.8066 208.007 22.9564C208.03 23.1061 207.984 23.2616 207.892 23.3826L196.274 38.7022C196.159 38.852 195.987 38.9268 195.815 38.9268L195.82 38.9211Z" fill="#5E5E5E"/>
<path d="M188.205 25.6113C187.929 25.6113 187.688 25.4097 187.636 25.1333L184.426 6.00676C184.375 5.69576 184.587 5.39627 184.897 5.34444C185.213 5.29261 185.506 5.5057 185.558 5.8167L188.676 24.4076L207.375 22.4552C207.691 22.4207 207.972 22.651 208.006 22.9678C208.041 23.2846 207.811 23.5668 207.495 23.6013L188.262 25.6056C188.262 25.6056 188.222 25.6056 188.205 25.6056V25.6113Z" fill="#5E5E5E"/>
<path d="M200.419 40.6547C198.748 42.8605 195.607 43.2924 193.402 41.6107C191.202 39.9348 190.771 36.7844 192.448 34.5729C194.12 32.3671 197.261 31.9351 199.466 33.6168C201.666 35.2928 202.096 38.4431 200.419 40.6547Z" fill="white"/>
<path d="M196.429 43.2116C195.251 43.2116 194.063 42.843 193.058 42.0712C191.869 41.167 191.105 39.8539 190.904 38.368C190.703 36.8879 191.088 35.4135 191.99 34.2271C192.891 33.0349 194.201 32.2689 195.676 32.0674C197.158 31.8658 198.623 32.2517 199.806 33.1559C200.058 33.3459 200.104 33.7088 199.915 33.9622C199.725 34.2156 199.363 34.2616 199.111 34.0716C198.169 33.3517 197.009 33.0464 195.831 33.2077C194.66 33.369 193.62 33.9737 192.903 34.924C192.185 35.8685 191.88 37.0376 192.041 38.2125C192.202 39.3874 192.805 40.4298 193.753 41.1497C195.699 42.6356 198.485 42.2555 199.961 40.3031C200.15 40.0497 200.512 40.0036 200.765 40.1937C201.017 40.3838 201.063 40.7466 200.874 41C199.777 42.4456 198.111 43.2058 196.423 43.2058L196.429 43.2116Z" fill="#5E5E5E"/>
<path d="M195.492 39.1629C195.366 39.1629 195.246 39.1226 195.142 39.0477C195.022 38.9556 194.941 38.8174 194.918 38.6676L194.43 35.0623C194.39 34.7456 194.608 34.4576 194.924 34.4115C195.24 34.3654 195.527 34.5901 195.573 34.9068L195.986 37.9419L203.199 36.9571C203.515 36.9168 203.802 37.1356 203.848 37.4524C203.889 37.7692 203.67 38.0571 203.354 38.1032L195.573 39.1629C195.573 39.1629 195.521 39.1629 195.498 39.1629H195.492Z" fill="#5E5E5E"/>
<path d="M191.864 65.7606L174.792 73.7842L180.238 85.4397L197.31 77.4161L191.864 65.7606Z" fill="white"/>
<path d="M180.24 86.026C180.021 86.026 179.815 85.9051 179.717 85.692L178.172 82.3804C178.04 82.0925 178.161 81.7469 178.448 81.6144C178.735 81.4762 179.08 81.6029 179.212 81.8909L180.515 84.6784L196.549 77.1452L191.593 66.5367L175.559 74.0698L177.667 78.5851C177.799 78.873 177.678 79.2186 177.391 79.351C177.104 79.4835 176.759 79.3626 176.627 79.0746L174.273 74.041C174.21 73.9028 174.204 73.7415 174.25 73.6033C174.302 73.4593 174.411 73.3441 174.548 73.2808L191.622 65.2581C191.909 65.1199 192.254 65.2466 192.386 65.5346L197.83 77.1856C197.893 77.3238 197.899 77.485 197.853 77.6233C197.801 77.7672 197.692 77.8824 197.554 77.9458L180.481 85.9685C180.4 86.003 180.32 86.0203 180.24 86.0203V86.026Z" fill="#5E5E5E"/>
<path d="M187.085 78.3951C187.028 78.3951 186.965 78.3836 186.907 78.3663L174.618 74.3406C174.319 74.2427 174.152 73.9144 174.25 73.6149C174.348 73.3154 174.669 73.1484 174.974 73.2463L186.752 77.105L191.335 65.5577C191.45 65.264 191.783 65.1142 192.082 65.2352C192.375 65.3504 192.518 65.6902 192.403 65.9839L187.625 78.0323C187.539 78.2569 187.321 78.3951 187.091 78.3951H187.085Z" fill="#5E5E5E"/>
<path d="M200.098 75.4117C200.885 77.0934 200.162 79.0919 198.49 79.8752C196.819 80.6584 194.821 79.9385 194.04 78.2626C193.259 76.5866 193.977 74.5824 195.648 73.7991C197.325 73.0101 199.317 73.7358 200.098 75.4117Z" fill="white"/>
<path d="M197.078 80.7679C195.602 80.7679 194.189 79.927 193.523 78.5045C192.604 76.5406 193.454 74.1966 195.412 73.2751C195.699 73.1369 196.044 73.2636 196.176 73.5515C196.308 73.8395 196.188 74.185 195.9 74.3175C195.228 74.6343 194.723 75.1929 194.47 75.8898C194.218 76.5867 194.252 77.3411 194.568 78.015C194.884 78.6888 195.441 79.1956 196.136 79.449C196.831 79.7024 197.583 79.6679 198.255 79.3511C199.639 78.7003 200.236 77.0416 199.593 75.6537C199.461 75.3657 199.582 75.0201 199.869 74.8877C200.156 74.7552 200.495 74.8762 200.632 75.1641C201.551 77.128 200.701 79.472 198.743 80.3935C198.209 80.6469 197.64 80.7621 197.083 80.7621L197.078 80.7679Z" fill="#5E5E5E"/>
<path d="M197.347 78.2684C197.278 78.2684 197.215 78.2569 197.152 78.2338L194.872 77.4045C194.574 77.2951 194.419 76.9668 194.528 76.6673C194.637 76.3678 194.964 76.2123 195.263 76.3218L197.003 76.9553L198.594 72.5437C198.703 72.2442 199.03 72.0887 199.329 72.1981C199.627 72.3076 199.782 72.6358 199.673 72.9353L197.887 77.8883C197.835 78.0323 197.726 78.1475 197.589 78.2108C197.514 78.2454 197.428 78.2626 197.347 78.2626V78.2684Z" fill="#5E5E5E"/>
<path d="M165.256 62.2867C165.256 62.2867 165.199 62.2867 165.17 62.2809C164.854 62.2349 164.641 61.9411 164.687 61.6244C164.774 61.0312 164.865 60.461 164.957 59.9081C165.009 59.5914 165.302 59.384 165.618 59.4359C165.928 59.4877 166.14 59.7872 166.089 60.0982C165.997 60.6453 165.911 61.2097 165.824 61.7914C165.784 62.0794 165.537 62.2809 165.256 62.2809V62.2867ZM166.169 57.1955C166.129 57.1955 166.089 57.1955 166.048 57.184C165.738 57.1149 165.543 56.8096 165.612 56.4986C165.738 55.9054 165.87 55.341 166.008 54.7996C166.083 54.4886 166.399 54.3043 166.703 54.3792C167.013 54.4541 167.197 54.7708 167.122 55.0761C166.99 55.6059 166.864 56.1588 166.738 56.7405C166.68 57.0112 166.439 57.1955 166.175 57.1955H166.169ZM167.53 52.208C167.467 52.208 167.404 52.1965 167.341 52.1734C167.042 52.0697 166.881 51.7415 166.985 51.442C167.186 50.8661 167.398 50.3132 167.616 49.7948C167.743 49.5011 168.076 49.3629 168.369 49.4896C168.661 49.6163 168.799 49.9503 168.673 50.2441C168.466 50.7336 168.259 51.2635 168.07 51.8163C167.99 52.0525 167.766 52.2022 167.53 52.2022V52.208ZM169.793 47.589C169.678 47.589 169.557 47.5545 169.454 47.4796C169.196 47.2953 169.138 46.9325 169.328 46.6733C169.701 46.155 170.103 45.6885 170.522 45.2969C170.752 45.078 171.114 45.0895 171.332 45.3199C171.55 45.5503 171.539 45.9188 171.309 46.1319C170.941 46.4775 170.591 46.8864 170.258 47.3472C170.143 47.5027 169.971 47.5833 169.793 47.5833V47.589ZM173.887 44.646C173.635 44.646 173.399 44.4733 173.33 44.2141C173.25 43.9089 173.434 43.5921 173.744 43.5115C174.278 43.3733 174.847 43.2811 175.53 43.2178C175.852 43.189 176.127 43.4251 176.156 43.7418C176.185 44.0586 175.949 44.3408 175.633 44.3696C175.007 44.4272 174.502 44.5078 174.031 44.6345C173.985 44.6461 173.933 44.6518 173.887 44.6518V44.646ZM179.01 44.0644C178.74 44.0644 178.499 43.8743 178.447 43.5979C178.384 43.2869 178.591 42.9816 178.901 42.924C179.458 42.8146 179.929 42.6476 180.342 42.4172C180.618 42.2617 180.968 42.3596 181.123 42.6418C181.279 42.9183 181.175 43.2696 180.899 43.4251C180.377 43.7188 179.797 43.9204 179.119 44.0586C179.079 44.0644 179.045 44.0701 179.01 44.0701V44.0644ZM182.864 40.9544C182.783 40.9544 182.703 40.9371 182.622 40.9025C182.335 40.7701 182.209 40.4245 182.341 40.1365C182.553 39.6816 182.726 39.169 182.858 38.6103C182.932 38.2993 183.243 38.1093 183.553 38.1842C183.863 38.259 184.052 38.57 183.978 38.881C183.828 39.5088 183.627 40.0962 183.386 40.6203C183.289 40.8334 183.082 40.9544 182.864 40.9544ZM183.782 35.8804C183.467 35.8804 183.208 35.6386 183.208 35.316C183.208 34.7631 183.185 34.2045 183.145 33.6343C183.122 33.3176 183.357 33.0411 183.673 33.0181C183.995 32.995 184.265 33.2312 184.288 33.5479C184.334 34.1469 184.357 34.7343 184.357 35.2872C184.357 35.604 184.098 35.8747 183.782 35.8747V35.8804ZM183.254 30.7432C182.984 30.7432 182.743 30.5531 182.691 30.2767C182.496 29.2803 182.324 28.641 182.318 28.6353C182.232 28.33 182.41 28.0133 182.72 27.9269C183.024 27.8405 183.34 28.019 183.426 28.33C183.432 28.3588 183.616 29.0154 183.817 30.0636C183.88 30.3746 183.673 30.6798 183.363 30.7374C183.329 30.7432 183.289 30.7489 183.254 30.7489V30.7432Z" fill="#5E5E5E"/>
<path d="M181.348 68.3221C181.211 68.3221 181.073 68.276 180.964 68.1724C180.556 67.8038 180.119 67.4755 179.671 67.1933C179.402 67.0263 179.321 66.6692 179.488 66.3985C179.654 66.1278 180.01 66.0472 180.28 66.2142C180.791 66.531 181.279 66.8996 181.733 67.3142C181.969 67.5273 181.992 67.8902 181.779 68.1263C181.664 68.253 181.509 68.3163 181.354 68.3163L181.348 68.3221ZM165.136 68.0802C164.935 68.0802 164.74 67.9708 164.631 67.7807C164.476 67.5043 164.579 67.153 164.855 66.9975C164.878 66.986 165.481 66.6519 166.474 66.2373C166.761 66.1163 167.1 66.2545 167.227 66.5483C167.347 66.842 167.209 67.1818 166.917 67.3027C165.986 67.6943 165.418 68.0053 165.412 68.0111C165.326 68.0572 165.228 68.0802 165.136 68.0802ZM169.966 66.2545C169.708 66.2545 169.472 66.0817 169.409 65.8168C169.334 65.5058 169.518 65.1948 169.828 65.12C170.414 64.976 171 64.855 171.568 64.7686C171.884 64.7226 172.177 64.9357 172.223 65.2467C172.269 65.5634 172.056 65.8571 171.746 65.9032C171.212 65.9838 170.661 66.099 170.11 66.2373C170.064 66.2488 170.018 66.2545 169.972 66.2545H169.966ZM176.794 65.9954C176.754 65.9954 176.714 65.9954 176.668 65.9838C176.151 65.8687 175.605 65.788 175.048 65.7477C174.733 65.7247 174.497 65.4482 174.52 65.1315C174.543 64.8147 174.819 64.5786 175.135 64.5959C175.749 64.6419 176.346 64.7283 176.921 64.855C177.231 64.9241 177.426 65.2294 177.357 65.5404C177.3 65.8111 177.058 65.9896 176.794 65.9896V65.9954Z" fill="#5E5E5E"/>
</svg>
