<svg width="15" height="14" viewBox="0 0 15 14" fill="none" xmlns="http://www.w3.org/2000/svg">
<path d="M12.2494 2.94737H10.0878V2.21053C10.0878 1.62426 9.86001 1.062 9.45462 0.647448C9.04923 0.232894 8.4994 0 7.9261 0H6.48499C5.91168 0 5.36185 0.232894 4.95646 0.647448C4.55107 1.062 4.32333 1.62426 4.32333 2.21053V2.94737H2.16166C1.58835 2.94737 1.03853 3.18026 0.633136 3.59482C0.227746 4.00937 0 4.57163 0 5.15789V11.7895C0 12.3757 0.227746 12.938 0.633136 13.3526C1.03853 13.7671 1.58835 14 2.16166 14H12.2494C12.8227 14 13.3726 13.7671 13.7779 13.3526C14.1833 12.938 14.4111 12.3757 14.4111 11.7895V5.15789C14.4111 4.57163 14.1833 4.00937 13.7779 3.59482C13.3726 3.18026 12.8227 2.94737 12.2494 2.94737ZM5.76443 2.21053C5.76443 2.0151 5.84035 1.82769 5.97548 1.6895C6.11061 1.55132 6.29389 1.47368 6.48499 1.47368H7.9261C8.1172 1.47368 8.30048 1.55132 8.43561 1.6895C8.57073 1.82769 8.64665 2.0151 8.64665 2.21053V2.94737H5.76443V2.21053ZM12.97 11.7895C12.97 11.9849 12.8941 12.1723 12.7589 12.3105C12.6238 12.4487 12.4405 12.5263 12.2494 12.5263H2.16166C1.97056 12.5263 1.78728 12.4487 1.65215 12.3105C1.51702 12.1723 1.44111 11.9849 1.44111 11.7895V8.06842H3.60277V8.8421C3.60277 9.03753 3.67869 9.22495 3.81382 9.36313C3.94895 9.50132 4.13222 9.57895 4.32333 9.57895C4.51443 9.57895 4.6977 9.50132 4.83283 9.36313C4.96796 9.22495 5.04388 9.03753 5.04388 8.8421V8.06842H9.3672V8.8421C9.3672 9.03753 9.44312 9.22495 9.57825 9.36313C9.71338 9.50132 9.89666 9.57895 10.0878 9.57895C10.2789 9.57895 10.4621 9.50132 10.5973 9.36313C10.7324 9.22495 10.8083 9.03753 10.8083 8.8421V8.06842H12.97V11.7895ZM12.97 6.63158H1.44111V5.15789C1.44111 4.96247 1.51702 4.77505 1.65215 4.63687C1.78728 4.49868 1.97056 4.42105 2.16166 4.42105H12.2494C12.4405 4.42105 12.6238 4.49868 12.7589 4.63687C12.8941 4.77505 12.97 4.96247 12.97 5.15789V6.63158Z" fill="#0050C8"/>
</svg>
