<svg width="25" height="15" viewBox="0 0 25 15" fill="none" xmlns="http://www.w3.org/2000/svg">
<path d="M3.47104 9.89389C3.40695 9.89392 3.34376 9.87812 3.28667 9.8478L0.218352 8.20276C0.123751 8.15209 0.0522702 8.0645 0.0195322 7.95913C-0.0132058 7.85376 -0.00453804 7.73919 0.0436409 7.64045L3.64817 0.229815C3.6721 0.180608 3.70512 0.136802 3.74535 0.10091C3.78558 0.0650171 3.83222 0.0377439 3.8826 0.0206544C3.93298 0.00356483 3.9861 -0.00300479 4.03892 0.00132211C4.09175 0.005649 4.14323 0.0207871 4.19042 0.0458688L7.10938 1.59621C7.2031 1.64585 7.27444 1.73168 7.30814 1.83535C7.34184 1.93903 7.33524 2.05231 7.28973 2.15098L3.83415 9.65464C3.81079 9.7051 3.77801 9.75021 3.73771 9.78733C3.69742 9.82446 3.65042 9.85285 3.59946 9.87085C3.55809 9.88554 3.51475 9.89332 3.47104 9.89389ZM0.942559 7.64799L3.28707 8.90503L6.39403 2.15894L4.18398 0.985711L0.942559 7.64799Z" fill="#0050C8"/>
<path d="M7.64172 4.0629C7.57246 4.06288 7.50438 4.04426 7.44406 4.00884L6.27422 3.32292C6.22815 3.29593 6.18763 3.25976 6.15499 3.21647C6.12235 3.17319 6.09822 3.12363 6.08398 3.07064C6.06973 3.01764 6.06566 2.96225 6.07198 2.90762C6.07831 2.85298 6.09491 2.80018 6.12084 2.75223C6.14677 2.70427 6.18152 2.6621 6.22311 2.62813C6.2647 2.59415 6.31231 2.56904 6.36322 2.55421C6.41413 2.53939 6.46735 2.53515 6.51984 2.54173C6.57233 2.54831 6.62306 2.5656 6.66913 2.59259L7.63527 3.15867C8.01247 2.92067 8.82887 2.40822 9.35139 2.10108C10.2044 1.59827 10.805 1.66741 11.4946 2.34746C11.5701 2.42435 11.6136 2.52905 11.6156 2.63897C11.6176 2.74889 11.578 2.85523 11.5054 2.93506C11.4328 3.01489 11.3329 3.06181 11.2273 3.0657C11.1218 3.06959 11.019 3.03015 10.9411 2.95587C10.5128 2.5335 10.2898 2.51172 9.74751 2.83016C9.07604 3.22529 7.86473 3.99376 7.85225 4.0034C7.78867 4.04302 7.71582 4.06361 7.64172 4.0629Z" fill="#0050C8"/>
<path d="M18.2316 11.3533C17.9383 11.3611 17.6489 11.2816 17.3975 11.1241C17.0272 10.8668 15.3976 9.20335 15.0747 8.87275C15.0036 8.7939 14.9645 8.68944 14.9656 8.58125C14.9667 8.47305 15.008 8.36952 15.0809 8.29231C15.1537 8.2151 15.2524 8.17021 15.3563 8.16702C15.4602 8.16384 15.5613 8.20262 15.6383 8.27525C16.3629 9.01983 17.606 10.2622 17.8432 10.4269C17.996 10.5004 18.165 10.5297 18.3325 10.5117C18.4999 10.4937 18.6596 10.4291 18.7948 10.3246C18.8581 10.2675 18.9086 10.1966 18.9427 10.1169C18.9768 10.0373 18.9936 9.95077 18.9921 9.86357C18.9906 9.77637 18.9707 9.69059 18.9338 9.61228C18.8969 9.53397 18.844 9.46503 18.7787 9.41035C18.3673 8.92848 16.658 7.21682 16.2828 6.84139C14.9737 6.3419 13.7041 5.73639 12.4859 5.03042L12.0624 5.3187C11.9673 5.7781 11.7136 6.18526 11.3494 6.46302C11.2216 6.56783 11.0732 6.64213 10.9148 6.68065C10.7563 6.71917 10.5916 6.72097 10.4324 6.68593C10.2392 6.66087 10.0532 6.59412 9.88618 6.48993C9.7192 6.38574 9.57494 6.24642 9.46265 6.08088C9.24857 5.6048 9.22454 5.05981 9.39582 4.56532C9.7392 3.13481 10.2963 2.7665 11.0673 2.25698L11.2367 2.14427C12.0861 1.57651 12.8152 1.27398 13.6155 1.649C14.113 1.88239 15.8791 2.59429 16.3806 2.79625L18.0617 2.22262C18.1624 2.19075 18.2711 2.20119 18.3645 2.25173C18.4579 2.30226 18.5286 2.38885 18.5614 2.49296C18.5942 2.59706 18.5865 2.7104 18.54 2.80868C18.4935 2.90696 18.4118 2.98237 18.3125 3.01875L16.495 3.63888C16.407 3.66877 16.3118 3.6664 16.2253 3.63218C16.1299 3.59363 13.8844 2.69443 13.2866 2.41369C12.9279 2.24609 12.5491 2.26327 11.6731 2.84905L11.5 2.96427C10.7967 3.42896 10.4437 3.66277 10.178 4.76854C10.0419 5.33504 10.1047 5.56466 10.1542 5.64846C10.2178 5.75908 10.3652 5.80392 10.5999 5.86509C10.6503 5.87392 10.7019 5.87099 10.751 5.85649C10.8002 5.842 10.8456 5.81631 10.8841 5.78129C10.9976 5.69225 11.0925 5.57996 11.1627 5.45132C11.233 5.32269 11.2772 5.18045 11.2927 5.03335C11.2979 4.97018 11.3169 4.90908 11.3481 4.85464C11.3794 4.8002 11.4221 4.75386 11.473 4.71909L12.248 4.19156C12.309 4.15021 12.3798 4.12689 12.4526 4.12409C12.5254 4.12128 12.5975 4.1391 12.6614 4.17564C12.6888 4.19114 15.4028 5.73604 16.5916 6.06119C16.6577 6.07956 16.7183 6.11485 16.7679 6.16385C16.8549 6.25058 18.9015 8.29033 19.3821 8.85474C19.5153 8.98893 19.6209 9.14987 19.6926 9.32782C19.7642 9.50577 19.8004 9.69701 19.7989 9.88993C19.7973 10.0829 19.7582 10.2735 19.6838 10.4502C19.6094 10.6269 19.5013 10.786 19.366 10.9179C19.0563 11.2104 18.6496 11.3665 18.2316 11.3533Z" fill="#0050C8"/>
<path d="M19.081 9.55111C18.9887 9.55104 18.8993 9.518 18.8277 9.45752C18.756 9.39704 18.7065 9.31278 18.6874 9.21884C18.6683 9.12491 18.6808 9.027 18.7228 8.94149C18.7647 8.85599 18.8336 8.78808 18.9179 8.74913L20.3301 8.09798C20.3787 8.07412 20.4313 8.06061 20.4849 8.05824C20.5386 8.05587 20.5921 8.06469 20.6424 8.08417C20.6927 8.10366 20.7388 8.13342 20.7779 8.17171C20.817 8.21 20.8483 8.25604 20.8701 8.30712C20.8918 8.35821 20.9035 8.4133 20.9045 8.46917C20.9055 8.52503 20.8957 8.58054 20.8758 8.63242C20.8559 8.6843 20.8262 8.73151 20.7885 8.77127C20.7508 8.81103 20.7058 8.84253 20.6562 8.86393L19.2436 9.51675C19.1923 9.53984 19.1369 9.55154 19.081 9.55111Z" fill="#0050C8"/>
<path d="M20.9277 9.89387C20.8475 9.89384 20.7691 9.86885 20.7026 9.82211C20.6361 9.77538 20.5845 9.70902 20.5545 9.63157L17.516 1.78517C17.4957 1.73284 17.4857 1.67678 17.4868 1.62036C17.4878 1.56393 17.4997 1.5083 17.5219 1.4568C17.5441 1.40531 17.576 1.359 17.6158 1.32067C17.6556 1.28234 17.7025 1.25278 17.7535 1.23375L21.0006 0.0244803C21.0988 -0.0120918 21.2068 -0.00754382 21.3019 0.037166C21.397 0.0818759 21.4717 0.163255 21.5102 0.264155L24.4892 8.04687C24.5086 8.09832 24.5182 8.15329 24.5171 8.20858C24.5161 8.26388 24.5046 8.31842 24.4832 8.36906C24.4619 8.4197 24.4311 8.46544 24.3926 8.50363C24.3542 8.54182 24.3089 8.57171 24.2593 8.59159L21.0718 9.86454C21.0259 9.88343 20.9771 9.89338 20.9277 9.89387ZM18.4181 1.87567L21.1519 8.93476L23.589 7.96265L20.906 0.949657L18.4181 1.87567ZM16.4182 12.6242C16.0864 12.6345 15.7623 12.5184 15.5068 12.2977C14.9678 11.7991 13.5822 10.3577 13.5234 10.2965C13.4501 10.2175 13.4095 10.1117 13.4104 10.0018C13.4113 9.89195 13.4537 9.78685 13.5283 9.70917C13.6029 9.63148 13.7039 9.58741 13.8095 9.58646C13.915 9.5855 14.0167 9.62774 14.0926 9.70406C14.1067 9.71873 15.5205 11.1895 16.0414 11.6734C16.1494 11.7419 16.2717 11.7822 16.3978 11.791C16.524 11.7997 16.6503 11.7766 16.766 11.7237C16.9551 11.6566 17.1228 11.5367 17.2508 11.3772C17.3789 11.2177 17.4624 11.0246 17.4922 10.8191C17.5012 10.7648 17.5204 10.713 17.5486 10.6665C17.5769 10.6199 17.6136 10.5797 17.6568 10.5479C17.7 10.5162 17.7488 10.4936 17.8004 10.4815C17.852 10.4694 17.9053 10.468 17.9574 10.4773C18.0095 10.4867 18.0593 10.5066 18.104 10.536C18.1487 10.5654 18.1874 10.6037 18.2179 10.6487C18.2484 10.6936 18.2701 10.7444 18.2817 10.7981C18.2933 10.8517 18.2947 10.9073 18.2857 10.9615C18.231 11.3135 18.0857 11.6435 17.8652 11.9165C17.6448 12.1895 17.3575 12.3952 17.0337 12.5119C16.836 12.5849 16.628 12.6229 16.4182 12.6242Z" fill="#0050C8"/>
<path d="M14.5447 13.6399C14.2135 13.6546 13.8899 13.5343 13.6425 13.3046L12.2126 11.8163L12.7823 11.2234L14.2122 12.7117C14.3006 12.7635 14.3986 12.7953 14.4996 12.8051C14.6007 12.8149 14.7025 12.8025 14.7987 12.7687C14.9834 12.7215 15.1524 12.6236 15.2883 12.4851C15.4241 12.3466 15.5217 12.1726 15.5708 11.9814C15.5857 11.9281 15.6106 11.8783 15.6441 11.8351C15.6777 11.7919 15.7191 11.7561 15.766 11.7297C15.813 11.7033 15.8645 11.6868 15.9176 11.6813C15.9707 11.6759 16.0243 11.6814 16.0753 11.6977C16.1264 11.714 16.1738 11.7406 16.2148 11.7762C16.2558 11.8117 16.2897 11.8553 16.3143 11.9046C16.339 11.9538 16.354 12.0077 16.3585 12.063C16.363 12.1184 16.3569 12.1741 16.3405 12.227C16.2285 12.633 15.9929 12.9903 15.6692 13.2451C15.3454 13.4999 14.951 13.6384 14.5451 13.6399H14.5447Z" fill="#0050C8"/>
<path d="M13.01 14.759C12.6809 14.7663 12.3591 14.6578 12.0966 14.451C11.734 14.1488 11.3697 13.8488 11.0037 13.551C10.9612 13.5175 10.9254 13.4755 10.8987 13.4274C10.8719 13.3794 10.8545 13.3263 10.8476 13.2712C10.8407 13.2161 10.8444 13.1602 10.8585 13.1066C10.8725 13.053 10.8967 13.0029 10.9295 12.9591C10.9624 12.9153 11.0033 12.8788 11.0498 12.8516C11.0964 12.8244 11.1476 12.8072 11.2006 12.8008C11.2536 12.7944 11.3073 12.7991 11.3586 12.8145C11.4099 12.8299 11.4577 12.8558 11.4992 12.8906C11.4992 12.8906 12.002 13.2992 12.5998 13.797C12.7272 13.8759 12.8721 13.919 13.0202 13.9222C13.1684 13.9253 13.3149 13.8884 13.4452 13.815C13.5618 13.7628 13.6604 13.6751 13.7281 13.5634C13.7958 13.4518 13.8294 13.3214 13.8244 13.1894C13.8212 13.0783 13.8604 12.9705 13.9336 12.8895C14.0067 12.8086 14.1078 12.7612 14.2145 12.7578C14.3209 12.7559 14.4238 12.7973 14.5013 12.8732C14.5788 12.9491 14.6246 13.0536 14.6291 13.1643C14.6386 13.4561 14.5656 13.7445 14.419 13.9935C14.2724 14.2425 14.0588 14.4412 13.8047 14.565C13.5576 14.6923 13.2857 14.7587 13.01 14.759Z" fill="#0050C8"/>
<path d="M9.99337 14.565C9.86253 14.5645 9.73304 14.5375 9.61215 14.4854C9.28389 14.3177 9.01329 14.0488 8.83722 13.7152C8.55153 13.7729 8.25547 13.7266 7.99868 13.5841C7.78329 13.4371 7.59812 13.2471 7.45396 13.0249C7.30979 12.8028 7.20951 12.553 7.15894 12.2902C7.13773 12.1832 7.15752 12.0718 7.21409 11.9797C7.54138 11.4484 8.03491 10.6225 8.10858 10.4503C8.17487 10.3129 8.2689 10.1921 8.38424 10.096C8.49958 9.99998 8.6335 9.93102 8.77683 9.89386C8.9718 9.84068 9.17572 9.83355 9.37367 9.87299C9.57162 9.91243 9.7586 9.99744 9.92091 10.1218C10.1008 10.2457 10.2452 10.4179 10.339 10.6201C10.4328 10.8223 10.4725 11.047 10.4539 11.2707C10.6454 11.2793 10.8329 11.3306 11.0037 11.421C11.1745 11.5114 11.3247 11.6389 11.4442 11.7949C11.5602 11.9837 11.6343 12.197 11.661 12.4193C11.6876 12.6417 11.6663 12.8674 11.5984 13.08C11.3872 13.6934 10.9537 14.1964 10.3907 14.4812C10.265 14.5365 10.1299 14.565 9.99337 14.565ZM9.51513 13.2573C9.64153 13.4798 9.86737 13.7991 10.0787 13.7073C10.4296 13.5171 10.6997 13.1975 10.8363 12.811C10.8632 12.7255 10.8735 12.6353 10.8666 12.5456C10.8597 12.4559 10.8357 12.3685 10.7961 12.2885C10.7348 12.2261 10.6621 12.1771 10.5823 12.1446C10.5025 12.1121 10.4172 12.0966 10.3315 12.0991L9.51513 13.2573ZM7.98902 12.2726C8.05308 12.5054 8.1919 12.7083 8.38232 12.8475C8.44178 12.8792 8.50685 12.898 8.57353 12.9025C8.64021 12.907 8.70707 12.8973 8.76999 12.8739L9.62946 11.3403C9.66362 11.2455 9.66581 11.1415 9.63568 11.0452C9.60554 10.949 9.54486 10.8663 9.4636 10.8107C9.40178 10.7599 9.33044 10.7233 9.25417 10.703C9.17791 10.6827 9.0984 10.6793 9.02078 10.6929C8.95226 10.7047 8.88971 10.7406 8.84366 10.7947C8.73738 11.0399 8.22613 11.8846 7.98902 12.2726Z" fill="#0050C8"/>
<path d="M6.91651 12.9271C6.82112 12.9274 6.7262 12.9133 6.63471 12.8852C5.94513 12.6694 5.67501 11.74 5.64643 11.6349C5.63199 11.5815 5.62786 11.5257 5.63429 11.4707C5.64072 11.4157 5.65757 11.3625 5.68387 11.3143C6.02603 10.6957 6.40448 10.0996 6.81707 9.52935C7.0242 9.24888 7.32432 9.05883 7.65883 8.9963C7.99335 8.93378 8.33824 9.00327 8.62618 9.1912C9.0062 9.46566 9.28477 10.0627 8.81861 10.8429C8.79072 10.8897 8.75425 10.9303 8.7113 10.9624C8.66834 10.9945 8.61972 11.0175 8.56823 11.0301C8.51674 11.0426 8.46337 11.0445 8.41119 11.0356C8.359 11.0266 8.30901 11.0071 8.26408 10.9781C8.21914 10.9491 8.18014 10.9111 8.1493 10.8664C8.11845 10.8217 8.09637 10.7711 8.08432 10.7175C8.07226 10.6639 8.07047 10.6083 8.07904 10.554C8.0876 10.4997 8.10637 10.4477 8.13425 10.4009C8.23771 10.227 8.32748 9.99612 8.16686 9.88006C8.04947 9.81331 7.91293 9.79276 7.78218 9.82215C7.65143 9.85154 7.5352 9.9289 7.45473 10.0401C7.10109 10.5292 6.77384 11.0384 6.47449 11.5653C6.56266 11.7845 6.71281 12.0355 6.86619 12.0828C7.00185 12.1247 7.18823 11.9797 7.28928 11.8901C7.3701 11.8174 7.47535 11.7811 7.58187 11.7892C7.68839 11.7973 7.78747 11.8491 7.85729 11.9332C7.92711 12.0173 7.96197 12.1269 7.9542 12.2378C7.94642 12.3486 7.89665 12.4518 7.81583 12.5244C7.57379 12.7691 7.25364 12.9125 6.91651 12.9271Z" fill="#0050C8"/>
<path d="M6.03289 11.9387C5.98865 11.9386 5.94472 11.931 5.90286 11.916C5.83483 11.8921 4.23022 11.3085 4.23022 10.0003C4.23018 9.95637 4.2367 9.91269 4.24955 9.87083C4.3952 9.45359 4.59469 9.0589 4.84252 8.6976C5.02695 8.46821 5.28168 8.31198 5.56382 8.2552C5.84596 8.19841 6.13829 8.24456 6.39157 8.38586C6.63 8.49584 6.82015 8.69486 6.92449 8.94364C7.02883 9.19241 7.03977 9.47286 6.95516 9.72963C6.69188 10.6121 6.42176 11.6206 6.41895 11.6311C6.39531 11.7192 6.34462 11.7968 6.27462 11.8521C6.20462 11.9074 6.11916 11.9374 6.03128 11.9374L6.03289 11.9387ZM5.03857 10.0653C5.07882 10.4575 5.46448 10.7558 5.77364 10.9347C5.87871 10.5526 6.0345 9.99654 6.18747 9.48241C6.20152 9.44975 6.2087 9.41435 6.20854 9.37857C6.20838 9.34279 6.20089 9.30746 6.18656 9.27493C6.17223 9.24241 6.1514 9.21344 6.12546 9.18997C6.09951 9.1665 6.06905 9.14906 6.03611 9.13882C5.95294 9.08999 5.85773 9.0679 5.76251 9.07536C5.66728 9.08281 5.57632 9.11948 5.50111 9.18072C5.31447 9.45588 5.15924 9.75273 5.03857 10.0653Z" fill="#0050C8"/>
<path d="M4.96334 9.69651C4.88229 9.69641 4.80316 9.67086 4.73629 9.62318L3.68038 8.86896C3.59224 8.80617 3.53168 8.70951 3.51201 8.60025C3.49235 8.49098 3.51519 8.37806 3.57551 8.28633C3.63583 8.19459 3.7287 8.13155 3.83367 8.11108C3.93865 8.09061 4.04714 8.11438 4.13527 8.17717L5.19119 8.93139C5.26231 8.98191 5.316 9.05484 5.34437 9.13946C5.37273 9.22408 5.37428 9.31595 5.34879 9.40155C5.3233 9.48716 5.2721 9.56201 5.20273 9.61509C5.13335 9.66818 5.04945 9.69672 4.96334 9.69651Z" fill="#0050C8"/>
</svg>
