<svg width="15" height="14" viewBox="0 0 15 14" fill="none" xmlns="http://www.w3.org/2000/svg">
<path d="M7.0899 7.87166C5.00498 7.87166 3.30859 6.10595 3.30859 3.93583C3.30859 1.76571 5.00498 0 7.0899 0C9.17481 0 10.8712 1.76571 10.8712 3.93583C10.8712 6.10595 9.17481 7.87166 7.0899 7.87166ZM7.0899 0.983957C5.52586 0.983957 4.25392 2.30787 4.25392 3.93583C4.25392 5.56379 5.52586 6.8877 7.0899 6.8877C8.65394 6.8877 9.92588 5.56379 9.92588 3.93583C9.92588 2.30787 8.65394 0.983957 7.0899 0.983957Z" fill="#0050C8"/>
<path d="M7.27893 6.00216H6.9008C6.63587 6.00106 6.3783 5.91133 6.16611 5.7462C5.95393 5.58107 5.79839 5.3493 5.72245 5.08511C5.70329 5.02267 5.69632 4.95688 5.70193 4.89159C5.70754 4.82631 5.72563 4.76285 5.75513 4.70494C5.78463 4.64704 5.82496 4.59585 5.87373 4.55439C5.9225 4.51293 5.97874 4.48203 6.03915 4.46351C6.09955 4.44499 6.16291 4.43922 6.22548 4.44654C6.28806 4.45385 6.3486 4.47411 6.40355 4.50613C6.45851 4.53814 6.50676 4.58126 6.54547 4.63295C6.58419 4.68464 6.6126 4.74386 6.62902 4.80714C6.66447 4.93161 6.77649 5.01869 6.9008 5.01869H7.27893C7.35421 5.01869 7.4264 4.98757 7.47963 4.93216C7.53286 4.87676 7.56276 4.80161 7.56276 4.72326C7.56276 4.64491 7.53286 4.56976 7.47963 4.51436C7.4264 4.45895 7.35421 4.42783 7.27893 4.42783H6.9008C6.223 4.42783 5.67188 3.85369 5.67188 3.14868C5.67188 2.44368 6.223 1.86954 6.9008 1.86954H7.27893C7.80878 1.86954 8.27672 2.22081 8.44452 2.74428C8.46511 2.8058 8.47377 2.87098 8.46997 2.93601C8.46617 3.00105 8.45 3.06465 8.4224 3.12313C8.39479 3.18161 8.3563 3.2338 8.30916 3.27666C8.26202 3.31953 8.20717 3.35223 8.14779 3.37285C8.08841 3.39348 8.02569 3.40162 7.96326 3.3968C7.90083 3.39199 7.83995 3.37432 7.78413 3.34481C7.72832 3.31531 7.6787 3.27455 7.63814 3.22492C7.59758 3.17529 7.5669 3.11777 7.54787 3.0557C7.52924 2.99679 7.4932 2.94552 7.4449 2.9092C7.3966 2.87289 7.33851 2.85339 7.27893 2.85349H6.9008C6.82558 2.85349 6.75345 2.88459 6.70026 2.93995C6.64708 2.99531 6.6172 3.07039 6.6172 3.14868C6.6172 3.22697 6.64708 3.30205 6.70026 3.35741C6.75345 3.41277 6.82558 3.44387 6.9008 3.44387H7.27893C7.95673 3.44387 8.50785 4.01801 8.50785 4.72301C8.50785 5.42802 7.95673 6.00216 7.27893 6.00216Z" fill="#0050C8"/>
<path d="M7.08995 0.977807C6.96185 0.977807 6.84369 0.92369 6.75435 0.835134C6.73545 0.810535 6.71181 0.785936 6.69764 0.756417C6.67889 0.731323 6.6645 0.70302 6.6551 0.672781C6.6415 0.644833 6.63179 0.615016 6.62626 0.584224C6.62201 0.549786 6.61728 0.520267 6.61728 0.485829C6.61728 0.357914 6.6688 0.23 6.75435 0.136524C6.92924 -0.045508 7.24592 -0.045508 7.42554 0.136524C7.51061 0.23 7.56261 0.357914 7.56261 0.485829C7.56261 0.520267 7.55788 0.549786 7.55268 0.584224C7.54775 0.61511 7.53818 0.644995 7.52432 0.672781C7.51473 0.702937 7.50035 0.731207 7.48178 0.756417C7.46288 0.785936 7.44397 0.810535 7.42506 0.835134C7.33573 0.92369 7.21284 0.977807 7.08995 0.977807ZM7.08995 4.91364C6.96185 4.91364 6.84369 4.85952 6.75435 4.77096C6.73545 4.74636 6.71181 4.72176 6.69764 4.69225C6.67889 4.66715 6.6645 4.63885 6.6551 4.60861C6.6415 4.58066 6.63179 4.55084 6.62626 4.52005C6.62201 4.48561 6.61728 4.4561 6.61728 4.42166C6.61728 4.29374 6.6688 4.16583 6.75435 4.07235C6.92924 3.89032 7.24592 3.89032 7.42554 4.07235C7.51061 4.16583 7.56261 4.29374 7.56261 4.42166C7.56261 4.4561 7.55788 4.48561 7.55268 4.52005C7.54775 4.55094 7.53818 4.58082 7.52432 4.60861C7.51473 4.63877 7.50035 4.66704 7.48178 4.69225C7.46288 4.72176 7.44397 4.74636 7.42506 4.77096C7.33573 4.85952 7.21284 4.91364 7.08995 4.91364ZM8.03527 13.2773H0.472663C0.347305 13.2773 0.227081 13.2254 0.13844 13.1332C0.0497983 13.0409 0 12.9158 0 12.7853V8.35749C0 8.22711 0.0496296 8.10166 0.13849 8.00966C0.249093 7.89404 1.25398 6.88155 2.36332 6.88155C3.28217 6.88155 4.46761 7.60427 4.86607 7.86551H7.08995C7.29683 7.86583 7.50115 7.91321 7.68861 8.00433C7.87606 8.09545 8.04212 8.2281 8.17516 8.39301C8.3082 8.55792 8.40502 8.7511 8.45882 8.95904C8.51263 9.16697 8.52213 9.38463 8.48666 9.59678L12.2164 7.97915C12.4319 7.88547 12.6662 7.84871 12.8986 7.87215C13.131 7.89558 13.3543 7.97848 13.5484 8.11346C13.7429 8.24801 13.9023 8.43056 14.0125 8.64483C14.1226 8.85909 14.1802 9.09841 14.1799 9.34144C14.1799 9.42744 14.1583 9.51194 14.1171 9.58653C14.076 9.66111 14.0168 9.72317 13.9454 9.76651L8.27349 13.2104C8.20115 13.2542 8.11896 13.2772 8.03527 13.2773ZM0.945326 12.2933H7.90718L13.1726 9.09644C13.1359 9.03055 13.0851 8.97433 13.0242 8.93212C12.9598 8.88656 12.8854 8.85858 12.8078 8.85076C12.7303 8.84294 12.6521 8.85552 12.5804 8.88735L8.21772 10.7795C8.15989 10.8045 8.09789 10.8174 8.03527 10.8174H4.25397C4.12861 10.8174 4.00839 10.7655 3.91974 10.6733C3.8311 10.581 3.7813 10.4559 3.7813 10.3254C3.7813 10.1949 3.8311 10.0698 3.91974 9.97752C4.00839 9.88525 4.12861 9.83342 4.25397 9.83342H7.08995C7.21165 9.82775 7.32656 9.77345 7.41075 9.6818C7.49495 9.59016 7.54194 9.46824 7.54194 9.34144C7.54194 9.21464 7.49495 9.09273 7.41075 9.00108C7.32656 8.90944 7.21165 8.85513 7.08995 8.84946H4.72663C4.63352 8.84946 4.54182 8.82044 4.4643 8.7673C4.10272 8.51639 3.0189 7.86551 2.36332 7.86551C1.84811 7.86551 1.25398 8.29845 0.945326 8.57346V12.2933Z" fill="#0050C8"/>
</svg>
