<svg width="9" height="12" viewBox="0 0 9 12" fill="none" xmlns="http://www.w3.org/2000/svg">
<path id="Vector" d="M7.01574 0H1.91339C1.40593 0 0.919251 0.189605 0.560422 0.527103C0.201593 0.864601 5.02768e-06 1.32235 5.02768e-06 1.79964V11.3977C-0.000441152 11.5034 0.0288172 11.6074 0.0848176 11.699C0.140818 11.7907 0.221572 11.8668 0.318902 11.9196C0.415859 11.9723 0.525843 12 0.637799 12C0.749755 12 0.859739 11.9723 0.956696 11.9196L4.46456 10.012L7.97243 11.9196C8.06963 11.9714 8.1796 11.9983 8.29133 11.9976C8.40305 11.9983 8.51302 11.9714 8.61022 11.9196C8.70755 11.8668 8.78831 11.7907 8.84431 11.699C8.90031 11.6074 8.92957 11.5034 8.92912 11.3977V1.79964C8.92912 1.32235 8.72753 0.864601 8.36871 0.527103C8.00988 0.189605 7.5232 0 7.01574 0ZM7.65353 10.3599L4.78346 8.80025C4.6865 8.7476 4.57652 8.71988 4.46456 8.71988C4.35261 8.71988 4.24262 8.7476 4.14567 8.80025L1.27559 10.3599V1.79964C1.27559 1.64054 1.34279 1.48796 1.4624 1.37546C1.58201 1.26296 1.74423 1.19976 1.91339 1.19976H7.01574C7.18489 1.19976 7.34712 1.26296 7.46673 1.37546C7.58634 1.48796 7.65353 1.64054 7.65353 1.79964V10.3599Z" fill="#1F66CF"/>
</svg>
