<svg xmlns="http://www.w3.org/2000/svg" width="30" height="30" viewBox="0 0 30 30" fill="none">
    <g clip-path="url(#clip0_15_14151)">
        <mask id="mask0_15_14151" style="mask-type:luminance" maskUnits="userSpaceOnUse" x="0" y="0"
            width="30" height="30">
            <path d="M30 0H0V30H30V0Z" fill="white" />
        </mask>
        <g mask="url(#mask0_15_14151)">
            <path
                d="M15.0015 30.0028C12.0439 29.9966 9.15444 29.1123 6.69787 27.4616C4.2413 25.8108 2.32774 23.4676 1.19878 20.7277C0.0698082 17.9879 -0.223955 14.9742 0.354558 12.0671C0.933072 9.16004 2.35793 6.48992 4.44927 4.39382C6.5406 2.29772 9.20466 0.869616 12.1051 0.289785C15.0056 -0.290046 18.0124 0.00439501 20.7461 1.13593C23.4797 2.26747 25.8176 4.18538 27.4646 6.64755C29.1116 9.10971 29.9939 12.0058 30.0001 14.9701C29.9948 18.9554 28.4129 22.776 25.6013 25.594C22.7896 28.412 18.9777 29.9975 15.0015 30.0028ZM15.0015 2.76736C12.5849 2.77188 10.224 3.49475 8.21743 4.84448C6.21087 6.19422 4.64884 8.11018 3.729 10.3499C2.80916 12.5897 2.57285 15.0526 3.04996 17.427C3.52706 19.8014 4.69614 21.9806 6.40928 23.6889C8.12242 25.3971 10.3026 26.5577 12.674 27.0237C15.0455 27.4898 17.5015 27.2403 19.7315 26.3069C21.9614 25.3735 23.865 23.7982 25.2013 21.7801C26.5377 19.7621 27.2468 17.3921 27.239 14.9701C27.2284 11.7261 25.9338 8.61894 23.6393 6.33098C21.3448 4.04301 18.2381 2.76131 15.0015 2.76736Z"
                fill="#ACB6C8" />
            <path
                d="M17.5693 16.6757C17.2797 16.6745 16.9977 16.5822 16.7632 16.4119C16.5287 16.2416 16.3534 16.0017 16.2621 15.7263C16.1708 15.4508 16.1681 15.1535 16.2543 14.8764C16.3405 14.5993 16.5113 14.3563 16.7427 14.1816C17.1201 13.8827 17.4156 13.4927 17.6014 13.048C17.7873 12.6034 17.8575 12.1187 17.8054 11.6394C17.7533 11.1602 17.5807 10.702 17.3036 10.3079C17.0266 9.91382 16.6542 9.59668 16.2215 9.38623C15.7887 9.17579 15.3097 9.07893 14.8294 9.10474C14.3491 9.13054 13.8832 9.27817 13.4754 9.53378C13.0675 9.78938 12.7312 10.1446 12.4977 10.5661C12.2643 10.9877 12.1415 11.4617 12.1408 11.9438C12.1408 12.3108 11.9954 12.6627 11.7365 12.9222C11.4776 13.1817 11.1264 13.3275 10.7603 13.3275C10.3942 13.3275 10.043 13.1817 9.7841 12.9222C9.5252 12.6627 9.37975 12.3108 9.37975 11.9438C9.37372 10.983 9.6129 10.0367 10.0746 9.19469C10.5363 8.35269 11.2051 7.643 12.0175 7.13306C12.8299 6.62311 13.759 6.32986 14.7163 6.28117C15.6737 6.23247 16.6276 6.42995 17.4873 6.85483C18.3471 7.27972 19.0842 7.9179 19.6285 8.70873C20.1729 9.49956 20.5064 10.4168 20.5975 11.3732C20.6885 12.3296 20.534 13.2935 20.1487 14.1732C19.7634 15.053 19.16 15.8193 18.3959 16.3995C18.1575 16.5788 17.8674 16.6757 17.5693 16.6757Z"
                fill="#ACB6C8" />
            <path
                d="M15.0013 19.1212C14.6349 19.1212 14.2835 18.9755 14.0241 18.7161C13.7648 18.4567 13.6187 18.1047 13.6179 17.7375C13.6179 15.7445 15.2513 14.9416 16.1262 14.5117C16.348 14.4128 16.5617 14.2967 16.7654 14.1643C17.0633 13.9507 17.4338 13.8643 17.7952 13.9244C18.1567 13.9845 18.4795 14.186 18.6927 14.4846C18.9059 14.7833 18.992 15.1546 18.9321 15.5169C18.8722 15.8791 18.6711 16.2027 18.3731 16.4164C18.0445 16.6341 17.6987 16.8245 17.3392 16.9858C16.4643 17.4157 16.3819 17.5296 16.3819 17.7261C16.383 17.9086 16.3481 18.0896 16.2793 18.2587C16.2104 18.4277 16.109 18.5814 15.9807 18.711C15.8524 18.8407 15.6999 18.9436 15.5318 19.014C15.3637 19.0844 15.1835 19.1208 15.0013 19.1212Z"
                fill="#ACB6C8" />
            <path
                d="M15.0013 23.6938C14.2372 23.6938 13.6179 23.2012 13.6179 22.5948V21.9286C13.6179 21.3221 14.2372 20.8296 15.0013 20.8296C15.7654 20.8296 16.3819 21.3221 16.3819 21.9286V22.5948C16.3819 23.2012 15.7626 23.6938 15.0013 23.6938Z"
                fill="#ACB6C8" />
        </g>
    </g>
    <defs>
        <clipPath id="clip0_15_14151">
            <rect width="30" height="30" fill="white" />
        </clipPath>
    </defs>
</svg>