<svg xmlns="http://www.w3.org/2000/svg" width="187" height="25" viewBox="0 0 187 25" fill="none">
    <g clip-path="url(#clip0_15_9832)">
      <path fill-rule="evenodd" clip-rule="evenodd" d="M31.1183 3.3697L29.1142 0.949879C28.691 0.482838 27.9301 0.136349 27.2375 0.0436943C27.3777 0.0196651 27.5205 0.00683594 27.665 0.00683594H26.7352C25.8954 0.150706 25.0956 0.740948 24.6732 1.57454L16.9899 20.4071C16.8466 20.6725 16.691 20.9464 16.5122 21.19L16.9246 21.6916L18.5812 23.7066C19.2549 24.5266 20.0256 24.9949 21.0278 24.9966L21.0234 24.9967H20.1449C20.7669 25.0044 21.2958 24.9962 21.5855 24.9966C22.392 24.9949 23.1351 24.513 23.5287 23.736L31.0504 5.21811C31.2567 4.83507 31.4827 4.44867 31.7579 4.14199L31.4824 3.80925L31.1183 3.3697Z" fill="#2144A5"/>
      <path fill-rule="evenodd" clip-rule="evenodd" d="M38.7781 1.28527C38.1036 0.470721 37.1498 0.00683594 36.1498 0.00683594H34.2545H34.2531H28.1878H27.6676C27.5228 0.00683594 27.38 0.0195633 27.2397 0.0435924C27.9323 0.136349 28.6933 0.482838 29.1165 0.94988L31.1206 3.3696L31.4846 3.80925L31.7602 4.14199L38.6898 12.5092L31.1238 21.7187C31.1212 21.7189 31.1216 21.7214 31.1216 21.7214L30.7846 22.1316L29.0516 24.2074C28.6469 24.6961 28.0741 24.9951 27.4741 24.9951H28.4322H29.6384H36.8419C37.4448 24.9951 38.0197 24.7138 38.4246 24.2209L48.0599 12.4926L38.7781 1.28527Z" fill="#3A6FFF"/>
      <path fill-rule="evenodd" clip-rule="evenodd" d="M16.9253 21.6927L16.5128 21.1911L10.4359 13.7997L9.37016 12.5023L18.6596 1.28566L19.0755 0.787567C19.4802 0.298838 20.053 0 20.6529 0H19.7244H18.4886H11.2823C10.6824 0 10.1101 0.278372 9.70535 0.766999L0 12.4858L9.21132 23.6981C9.88628 24.5195 10.8444 24.9881 11.8492 24.9881H15.9715H16.0275H16.7313L16.7369 24.9978H20.1456H21.0241H21.0284C20.0262 24.996 19.2556 24.5277 18.5819 23.7076L16.9253 21.6927Z" fill="#3A6FFF"/>
      <path fill-rule="evenodd" clip-rule="evenodd" d="M57.1035 15.6724C57.1368 15.9478 57.2307 16.2109 57.3853 16.4612C57.5397 16.7118 57.7502 16.9308 58.0175 17.1188C58.2847 17.3065 58.6019 17.4547 58.9692 17.5632C59.3367 17.6717 59.7539 17.726 60.2214 17.726C60.8643 17.726 61.3924 17.6404 61.8055 17.4693C62.2187 17.2983 62.5257 17.0644 62.7259 16.7679C62.9262 16.4717 63.0265 16.1358 63.0265 15.7601C63.0265 15.2259 62.8137 14.8168 62.3877 14.5329C61.962 14.249 61.3316 14.0195 60.4969 13.8441L58.0803 13.3181C57.1701 13.1345 56.3751 12.8424 55.6948 12.4416C55.0141 12.041 54.4843 11.5129 54.1045 10.8577C53.7244 10.2022 53.5347 9.40311 53.5347 8.45961C53.5347 7.3661 53.8165 6.42055 54.3799 5.62324C54.9434 4.82618 55.724 4.21249 56.7216 3.78268C57.7189 3.3526 58.8773 3.1377 60.1965 3.1377C61.624 3.1377 62.8198 3.37363 63.7841 3.84525C64.7483 4.31687 65.4808 4.93672 65.9816 5.70479C66.4825 6.47287 66.7497 7.29942 66.783 8.18418H62.9762C62.9262 7.84182 62.7906 7.52459 62.5693 7.23249C62.3482 6.94039 62.0392 6.7024 61.6427 6.51878C61.2462 6.33516 60.76 6.24309 60.184 6.24309C59.3574 6.24309 58.725 6.42465 58.2867 6.7878C57.8485 7.15093 57.6294 7.60819 57.6294 8.15905C57.6294 8.61836 57.8318 8.9897 58.2367 9.27359C58.6417 9.55748 59.2028 9.77035 59.9209 9.91217L62.4002 10.4256C63.2768 10.5925 64.0677 10.8639 64.7732 11.2396C65.4787 11.6153 66.0398 12.1328 66.4576 12.7924C66.8748 13.4517 67.0836 14.3034 67.0836 15.3467C67.0836 16.432 66.8164 17.3901 66.2822 18.2207C65.748 19.0514 64.9612 19.7005 63.9218 20.1677C62.8824 20.6353 61.5945 20.8691 60.0586 20.8691C58.8566 20.8691 57.8254 20.7271 56.9657 20.4434C56.1059 20.1595 55.4004 19.7713 54.8495 19.2789C54.2984 18.7862 53.8893 18.2289 53.6224 17.607C53.3551 16.9852 53.209 16.3402 53.1841 15.6724H57.1035Z" fill="#3A6FFF"/>
      <path fill-rule="evenodd" clip-rule="evenodd" d="M81.3481 20.5537H77.4788V18.3123H77.2785C77.1615 18.6629 76.9446 19.026 76.6273 19.4017C76.3098 19.7774 75.8841 20.0967 75.3499 20.3596C74.8157 20.6227 74.1561 20.754 73.3714 20.754C72.4866 20.754 71.7124 20.5891 71.0487 20.2596C70.385 19.9298 69.8695 19.4204 69.5023 18.7319C69.1348 18.043 68.9512 17.1644 68.9512 16.0958V7.18018H72.9457V15.0689C72.9457 15.7119 73.0501 16.2066 73.2588 16.5528C73.4673 16.8992 73.7325 17.1372 74.0541 17.2667C74.3752 17.396 74.7029 17.4606 75.0371 17.4606C75.4543 17.4606 75.8385 17.3627 76.1891 17.1665C76.5396 16.9703 76.8233 16.6843 77.0405 16.3086C77.2574 15.9329 77.3662 15.4823 77.3662 14.9564V7.18018H81.3481V20.5537Z" fill="#3A6FFF"/>
      <path fill-rule="evenodd" clip-rule="evenodd" d="M91.5786 17.2358C91.9292 16.9771 92.1964 16.6055 92.38 16.1213C92.5636 15.6374 92.6555 15.0529 92.6555 14.3682V13.379C92.6555 12.6861 92.5636 12.0998 92.38 11.6198C92.1964 11.1397 91.9271 10.7724 91.5725 10.5178C91.2175 10.2631 90.7854 10.1357 90.2763 10.1357C89.7837 10.1357 89.358 10.2611 88.9989 10.5114C88.6402 10.7619 88.3645 11.1187 88.1727 11.5821C87.9803 12.0455 87.8847 12.6027 87.8847 13.2539V14.5936C87.8847 15.2032 87.9847 15.7353 88.1852 16.1903C88.3855 16.6452 88.665 16.9978 89.0241 17.2484C89.3829 17.4987 89.8086 17.6241 90.3015 17.6241C90.8023 17.6241 91.228 17.4946 91.5786 17.2358ZM90.2012 20.4415C89.7003 20.2661 89.2703 20.0137 88.9115 19.6839C88.5525 19.3541 88.2768 18.9513 88.0849 18.4755H87.8847V24.9871H83.8901V7.18056H87.847V9.29681H88.0472C88.1809 8.94624 88.3686 8.629 88.6109 8.34511C88.853 8.06147 89.1387 7.82348 89.4685 7.6314C89.7983 7.43932 90.1656 7.29134 90.5705 7.18671C90.9754 7.08259 91.4114 7.03027 91.8792 7.03027C92.9142 7.03027 93.7951 7.27237 94.5214 7.75655C95.2477 8.24073 95.8047 8.93572 96.193 9.84152C96.5812 10.7473 96.7754 11.8388 96.7754 13.1162V14.6062C96.7754 15.8836 96.5792 16.9771 96.1868 17.887C95.7942 18.7969 95.2308 19.4942 94.4963 19.9781C93.7615 20.4625 92.8809 20.7044 91.854 20.7044C91.2529 20.7044 90.7021 20.6169 90.2012 20.4415Z" fill="#3A6FFF"/>
      <path fill-rule="evenodd" clip-rule="evenodd" d="M106.657 12.4525V12.4087V12.3648C106.657 11.8557 106.563 11.409 106.375 11.0251C106.188 10.6412 105.923 10.3406 105.58 10.1234C105.238 9.90645 104.837 9.79771 104.378 9.79771C103.919 9.79771 103.516 9.90645 103.17 10.1234C102.823 10.3406 102.552 10.6412 102.356 11.0251C102.16 11.409 102.062 11.8557 102.062 12.3648V12.4087V12.4525H106.657ZM101.204 20.0974C100.248 19.6258 99.505 18.9203 98.975 17.9811C98.4446 17.042 98.1797 15.8795 98.1797 14.4936V13.2165C98.1797 11.8222 98.4572 10.6599 99.0124 9.72898C99.5676 8.79805 100.313 8.10101 101.248 7.63786C102.183 7.17445 103.218 6.94287 104.353 6.94287C105.563 6.94287 106.628 7.19317 107.546 7.69402C108.464 8.19488 109.182 8.915 109.7 9.85413C110.218 10.7933 110.477 11.914 110.477 13.2165V14.6939H102.062V15.3076C102.062 16.0757 102.293 16.6912 102.757 17.1546C103.22 17.618 103.806 17.8496 104.516 17.8496C104.917 17.8496 105.278 17.7891 105.599 17.668C105.92 17.547 106.182 17.378 106.382 17.1607C106.582 16.9438 106.699 16.6976 106.732 16.4222H110.389C110.364 16.8727 110.237 17.3528 110.007 17.8621C109.777 18.3715 109.429 18.8492 108.961 19.296C108.494 19.7425 107.895 20.1056 107.165 20.3854C106.434 20.6649 105.555 20.8047 104.528 20.8047C103.268 20.8047 102.16 20.5688 101.204 20.0974Z" fill="#3A6FFF"/>
      <path fill-rule="evenodd" clip-rule="evenodd" d="M112.493 7.1804H116.488V9.29665H116.676C116.759 8.98788 116.926 8.65603 117.177 8.3011C117.427 7.94643 117.773 7.63971 118.216 7.38069C118.658 7.12193 119.201 6.99268 119.844 6.99268C120.127 6.99268 120.365 7.00088 120.557 7.01755C120.749 7.03448 120.912 7.06346 121.046 7.10526V10.4987C120.904 10.4486 120.699 10.4091 120.432 10.3799C120.165 10.3507 119.881 10.3361 119.581 10.3361C118.896 10.3361 118.333 10.4592 117.89 10.7054C117.448 10.9518 117.122 11.2983 116.913 11.7448C116.705 12.1915 116.601 12.7111 116.601 13.3037V20.5539H112.493V7.1804Z" fill="#3A6FFF"/>
      <path fill-rule="evenodd" clip-rule="evenodd" d="M121.659 13.1413C121.659 11.8809 121.912 10.7871 122.417 9.86054C122.922 8.93397 123.638 8.21591 124.564 7.70685C125.491 7.19753 126.585 6.94287 127.845 6.94287C129.047 6.94287 130.074 7.16214 130.926 7.60042C131.777 8.0387 132.435 8.63546 132.898 9.39097C133.361 10.1465 133.597 11.0084 133.605 11.9768H129.999C129.974 11.6511 129.884 11.3382 129.73 11.0377C129.575 10.7371 129.354 10.493 129.066 10.305C128.778 10.1173 128.413 10.0234 127.97 10.0234C127.236 10.0234 126.668 10.3073 126.267 10.8748C125.867 11.4426 125.666 12.2063 125.666 13.1665V14.4311C125.666 15.4664 125.869 16.2739 126.274 16.8543C126.678 17.4344 127.244 17.7244 127.97 17.7244C128.429 17.7244 128.803 17.6472 129.091 17.4928C129.379 17.3385 129.6 17.1215 129.755 16.8417C129.909 16.5619 130.003 16.2301 130.036 15.8462H133.643C133.626 16.8227 133.394 17.6826 132.948 18.4256C132.501 19.1688 131.848 19.7509 130.988 20.1725C130.128 20.5941 129.076 20.8049 127.833 20.8049C126.547 20.8049 125.443 20.5503 124.52 20.041C123.598 19.5319 122.89 18.8056 122.398 17.8621C121.905 16.9189 121.659 15.7877 121.659 14.4688V13.1413Z" fill="#3A6FFF"/>
      <path fill-rule="evenodd" clip-rule="evenodd" d="M139.911 10.3927C139.573 10.7058 139.325 11.1149 139.166 11.6198C139.007 12.125 138.928 12.6654 138.928 13.2414V14.4811C138.928 15.0406 139.003 15.5748 139.154 16.0839C139.304 16.5932 139.548 17.0087 139.886 17.33C140.224 17.6513 140.677 17.8121 141.245 17.8121C141.813 17.8121 142.263 17.6513 142.597 17.33C142.931 17.0087 143.171 16.5955 143.317 16.0903C143.463 15.5853 143.536 15.0488 143.536 14.4811V13.2414C143.536 12.6572 143.459 12.1125 143.305 11.6072C143.15 11.1023 142.906 10.6953 142.572 10.3865C142.238 10.0775 141.796 9.92312 141.245 9.92312C140.694 9.92312 140.249 10.0796 139.911 10.3927ZM144.607 7.713C145.554 8.22642 146.287 8.9568 146.805 9.90439C147.322 10.852 147.581 11.9601 147.581 13.2291V14.4059C147.581 15.7669 147.322 16.9251 146.805 17.8809C146.287 18.8369 145.554 19.5632 144.607 20.0597C143.66 20.5564 142.539 20.8049 141.245 20.8049C139.942 20.8049 138.816 20.5564 137.864 20.0597C136.912 19.5632 136.18 18.839 135.666 17.8873C135.153 16.9356 134.896 15.7792 134.896 14.4185V13.2539C134.896 12.0017 135.155 10.902 135.673 9.9544C136.19 9.00706 136.925 8.26822 137.876 7.73788C138.828 7.20804 139.951 6.94287 141.245 6.94287C142.539 6.94287 143.66 7.19958 144.607 7.713Z" fill="#3A6FFF"/>
      <path fill-rule="evenodd" clip-rule="evenodd" d="M154.212 10.5001C153.857 10.7422 153.582 11.1012 153.386 11.5769C153.19 12.0529 153.092 12.6371 153.092 13.33V14.4069C153.092 15.1001 153.19 15.6863 153.386 16.1664C153.582 16.6465 153.86 17.0076 154.218 17.2494C154.577 17.4918 154.995 17.6125 155.471 17.6125C155.947 17.6125 156.364 17.4918 156.723 17.2494C157.082 17.0076 157.364 16.6547 157.568 16.1913C157.773 15.7281 157.875 15.1626 157.875 14.4946V13.1549C157.875 12.5119 157.771 11.9652 157.562 11.5143C157.353 11.0635 157.065 10.7214 156.698 10.4875C156.331 10.2539 155.913 10.1369 155.446 10.1369C154.978 10.1369 154.567 10.258 154.212 10.5001ZM155.608 7.30055C156.117 7.48032 156.55 7.73702 156.905 8.07067C157.259 8.40483 157.52 8.79696 157.687 9.2478H157.875V2.56104H161.882V20.5553H157.913V18.414H157.725C157.616 18.7563 157.445 19.0674 157.211 19.3469C156.978 19.6267 156.692 19.8665 156.354 20.0671C156.015 20.2673 155.638 20.4217 155.22 20.5302C154.803 20.6387 154.356 20.6931 153.88 20.6931C152.887 20.6931 152.023 20.4574 151.288 19.9855C150.554 19.5139 149.984 18.8274 149.579 17.9257C149.174 17.024 148.972 15.9346 148.972 14.6574V13.0546C148.972 11.7772 149.176 10.6921 149.585 9.79891C149.994 8.90568 150.568 8.22096 151.307 7.74524C152.046 7.26926 152.912 7.03153 153.906 7.03153C154.532 7.03153 155.099 7.12129 155.608 7.30055Z" fill="#3A6FFF"/>
      <path fill-rule="evenodd" clip-rule="evenodd" d="M172.327 12.4525V12.4087V12.3648C172.327 11.8557 172.233 11.409 172.045 11.0251C171.858 10.6412 171.592 10.3406 171.25 10.1234C170.908 9.90645 170.507 9.79771 170.048 9.79771C169.589 9.79771 169.186 9.90645 168.84 10.1234C168.493 10.3406 168.222 10.6412 168.026 11.0251C167.83 11.409 167.732 11.8557 167.732 12.3648V12.4087V12.4525H172.327ZM166.874 20.0974C165.918 19.6258 165.175 18.9203 164.645 17.9811C164.115 17.042 163.85 15.8795 163.85 14.4936V13.2165C163.85 11.8222 164.127 10.6599 164.682 9.72898C165.238 8.79805 165.983 8.10101 166.918 7.63786C167.853 7.17445 168.888 6.94287 170.023 6.94287C171.233 6.94287 172.298 7.19317 173.216 7.69402C174.134 8.19488 174.852 8.915 175.37 9.85413C175.888 10.7933 176.147 11.914 176.147 13.2165V14.6939H167.732V15.3076C167.732 16.0757 167.963 16.6912 168.427 17.1546C168.89 17.618 169.476 17.8496 170.186 17.8496C170.587 17.8496 170.948 17.7891 171.269 17.668C171.59 17.547 171.851 17.378 172.052 17.1607C172.252 16.9438 172.369 16.6976 172.402 16.4222H176.059C176.034 16.8727 175.907 17.3528 175.677 17.8621C175.447 18.3715 175.099 18.8492 174.631 19.296C174.164 19.7425 173.565 20.1056 172.834 20.3854C172.104 20.6649 171.225 20.8047 170.198 20.8047C168.938 20.8047 167.83 20.5688 166.874 20.0974Z" fill="#3A6FFF"/>
      <path fill-rule="evenodd" clip-rule="evenodd" d="M178.164 7.1804H182.158V9.29665H182.346C182.429 8.98788 182.596 8.65603 182.847 8.3011C183.097 7.94643 183.444 7.63971 183.886 7.38069C184.329 7.12193 184.871 6.99268 185.514 6.99268C185.798 6.99268 186.036 7.00088 186.228 7.01755C186.42 7.03448 186.583 7.06346 186.716 7.10526V10.4987C186.574 10.4486 186.37 10.4091 186.103 10.3799C185.835 10.3507 185.552 10.3361 185.251 10.3361C184.566 10.3361 184.003 10.4592 183.561 10.7054C183.118 10.9518 182.793 11.2983 182.584 11.7448C182.375 12.1915 182.271 12.7111 182.271 13.3037V20.5539H178.164V7.1804Z" fill="#3A6FFF"/>
    </g>
    <defs>
      <clipPath id="clip0_15_9832">
        <rect width="187" height="25" fill="white"/>
      </clipPath>
    </defs>
  </svg>