<svg width="70" height="41" viewBox="0 0 70 41" fill="none" xmlns="http://www.w3.org/2000/svg">
    <g clip-path="url(#clip0_3310_41915)">
        <mask id="mask0_3310_41915" style="mask-type:luminance" maskUnits="userSpaceOnUse" x="0"
            y="0" width="70" height="41">
            <path d="M69.9829 0H0V40.6977H69.9829V0Z" fill="white" />
        </mask>
        <g mask="url(#mask0_3310_41915)">
            <path
                d="M39.8564 0.943449L41.7739 3.33261L42.1227 3.76327L42.3892 4.09139C42.1227 4.39902 41.9074 4.77841 41.7124 5.15779L34.5141 23.4713C34.1348 24.2403 33.4272 24.712 32.6582 24.7222H32.125C31.1714 24.7222 30.4331 24.2608 29.7871 23.4507L28.1977 21.4615L27.8081 20.9693C27.9824 20.7334 28.126 20.4566 28.2695 20.19L35.6113 1.55868C36.0112 0.73837 36.7803 0.1539 37.5801 0.0103455H38.062C38.062 0.0103455 39.0566 0.112884 39.8564 0.943449Z"
                fill="#DCDCDC" />
            <path
                d="M49.0954 1.27148C48.4491 0.471678 47.5367 0 46.5831 0H38.4722C38.3389 0 38.1953 0 38.062 0C38.7285 0.0922848 39.4566 0.471678 39.8565 0.933104L41.7739 3.32226L42.1227 3.75292L42.3892 4.08104L49.0132 12.3559L41.7739 21.4614L41.456 21.8715L39.7949 23.9223C39.4053 24.4042 38.8618 24.7016 38.2876 24.7016H47.2493C47.8236 24.7016 48.3775 24.4247 48.767 23.9326L57.9854 12.3354L49.0954 1.27148Z"
                fill="white" />
            <path
                d="M29.7773 23.4507L28.1879 21.4614L27.7983 20.9692L21.9844 13.6582L20.9692 12.3764L29.8594 1.27148L30.2593 0.779295C30.6489 0.297363 31.1923 0 31.7666 0H22.8047C22.2305 0 21.687 0.276855 21.2973 0.758788L12.0073 12.3457L20.8154 23.4301C21.4614 24.2402 22.374 24.7016 23.3379 24.7016H32.1152C31.1616 24.7016 30.4233 24.2504 29.7773 23.4301V23.4507Z"
                fill="white" />
            <path fill-rule="evenodd" clip-rule="evenodd"
                d="M34.6382 32.2382C34.3101 32.2382 34.0229 32.2997 33.7973 32.433C33.5718 32.5663 33.3872 32.7201 33.2641 32.9047C33.1308 33.0893 33.0385 33.2534 32.9873 33.4174L32.9053 33.684V32.187H30.8442V39.3237H32.9565V35.4785C32.9565 35.1708 33.0078 34.9042 33.1206 34.6786C33.2231 34.453 33.3974 34.2685 33.623 34.1454C33.8486 34.0224 34.146 33.9506 34.4946 33.9506C34.6484 33.9506 34.792 33.9506 34.9355 33.9711C35.0688 33.9814 35.1816 34.0019 35.2534 34.0326V32.2895C35.1816 32.269 35.0996 32.2485 34.997 32.2485C34.8945 32.2485 34.7715 32.2382 34.6279 32.2382H34.6382Z"
                fill="white" />
            <path fill-rule="evenodd" clip-rule="evenodd"
                d="M69.3681 32.2382C69.04 32.2382 68.7531 32.2997 68.5272 32.433C68.3018 32.5663 68.117 32.7201 67.9941 32.9047C67.861 33.0893 67.7686 33.2534 67.7174 33.4174L67.6351 33.684V32.187H65.5742V39.3237H67.6864V35.4785C67.6864 35.1708 67.7377 34.9042 67.8504 34.6786C67.953 34.453 68.1276 34.2685 68.3531 34.1454C68.5785 34.0224 68.876 33.9506 69.2248 33.9506C69.3782 33.9506 69.5219 33.9506 69.6656 33.9711C69.7986 33.9814 69.9118 34.0019 69.9834 34.0326V32.2895C69.9118 32.269 69.8296 32.2485 69.727 32.2485C69.6244 32.2485 69.5015 32.2382 69.3579 32.2382H69.3681Z"
                fill="white" />
            <path fill-rule="evenodd" clip-rule="evenodd"
                d="M6.01902 34.3608C5.6499 34.166 5.23974 34.0224 4.78857 33.9404L3.49657 33.6738C3.12744 33.602 2.83007 33.4892 2.625 33.3456C2.41992 33.2021 2.30712 33.0073 2.30712 32.7714C2.30712 32.4843 2.41992 32.2485 2.6455 32.0639C2.87109 31.8793 3.19921 31.7768 3.62987 31.7768C3.92724 31.7768 4.1836 31.828 4.38867 31.9204C4.59375 32.0127 4.7578 32.1357 4.87058 32.2895C4.98339 32.4433 5.05518 32.6074 5.08595 32.7817H7.06491C7.0444 32.3202 6.91112 31.8896 6.64451 31.4999C6.38815 31.1 6.00877 30.7822 5.50635 30.5361C5.0039 30.29 4.38867 30.1669 3.64013 30.1669C2.95312 30.1669 2.35839 30.2797 1.83544 30.5053C1.3125 30.7309 0.912596 31.0488 0.615235 31.4589C0.31787 31.8691 0.174316 32.3613 0.174316 32.9355C0.174316 33.4277 0.276855 33.8378 0.471678 34.1762C0.666502 34.5146 0.943356 34.7915 1.30224 34.9965C1.65088 35.2016 2.07128 35.3554 2.54297 35.4477L3.79394 35.7245C4.22458 35.8168 4.55273 35.9296 4.77831 36.0834C5.0039 36.227 5.10642 36.4115 5.10642 36.6884C5.10642 36.8832 5.05518 37.0575 4.95262 37.2114C4.8501 37.3652 4.68601 37.4882 4.47068 37.5805C4.25535 37.6728 3.97851 37.7138 3.65038 37.7138C3.40429 37.7138 3.18896 37.683 3.00439 37.6318C2.80956 37.5805 2.6455 37.4985 2.5122 37.4062C2.36865 37.3036 2.26611 37.1909 2.18408 37.0678C2.10205 36.9345 2.05078 36.8012 2.04052 36.6576H0C0.0102539 37.0063 0.0922848 37.3344 0.225586 37.6625C0.358886 37.9907 0.574216 38.2778 0.861326 38.5341C1.14844 38.7904 1.51758 38.9955 1.95849 39.1391C2.40966 39.2826 2.94286 39.3647 3.56835 39.3647C4.36816 39.3647 5.03467 39.2416 5.5781 38.9955C6.12158 38.7494 6.52148 38.4213 6.79834 37.9804C7.07517 37.5497 7.21875 37.0473 7.21875 36.4936C7.21875 35.9399 7.10594 35.54 6.8906 35.2016C6.67527 34.8632 6.37794 34.5864 6.01902 34.3916V34.3608Z"
                fill="white" />
            <path fill-rule="evenodd" clip-rule="evenodd"
                d="M12.5708 36.35C12.5708 36.6165 12.5195 36.8524 12.4067 37.0472C12.2939 37.2421 12.1504 37.3856 11.9658 37.4881C11.7812 37.5907 11.5864 37.642 11.3711 37.642C11.1968 37.642 11.0327 37.6112 10.8687 37.5394C10.7046 37.4677 10.5713 37.3548 10.4585 37.1703C10.3559 36.996 10.2944 36.7396 10.2944 36.4115V32.2074H8.2334V36.9447C8.2334 37.4984 8.32566 37.9496 8.52048 38.2982C8.70508 38.6571 8.97165 38.9134 9.32031 39.0877C9.65867 39.2621 10.0586 39.3441 10.52 39.3441C10.9199 39.3441 11.2685 39.2723 11.5351 39.139C11.812 39.0057 12.0273 38.8416 12.1914 38.6468C12.3555 38.452 12.4887 38.2674 12.54 38.0829L12.622 37.847V39.3441H14.6113V32.2074H12.5605V36.3602L12.5708 36.35Z"
                fill="white" />
            <path fill-rule="evenodd" clip-rule="evenodd"
                d="M21.3174 32.5765C20.9482 32.3304 20.4868 32.2074 19.9536 32.2074C19.7178 32.2074 19.4922 32.2382 19.2768 32.2894C19.0718 32.3407 18.8769 32.4227 18.7129 32.515C18.5488 32.6073 18.395 32.7406 18.272 32.8842C18.1489 33.0277 18.0361 33.1918 17.9643 33.3763L17.8823 33.6429V32.2074H15.8418V40.6976H17.9028V37.9188L17.9951 38.1444C18.0976 38.3905 18.2515 38.6468 18.436 38.8211C18.6206 38.9955 18.8462 39.1185 19.1025 39.2108C19.3589 39.3031 19.646 39.3441 19.9536 39.3441C20.4868 39.3441 20.938 39.221 21.3174 38.975C21.6968 38.7289 21.9838 38.3187 22.1889 37.847C22.394 37.3754 22.4966 36.8114 22.4966 36.1552V35.3861C22.4966 34.7298 22.394 34.1249 22.1992 33.6532C22.0044 33.1918 21.7173 32.8329 21.3379 32.5765H21.3174ZM20.3535 36.0218C20.3535 36.3705 20.3022 36.6781 20.21 36.9242C20.1177 37.1703 19.9741 37.3651 19.7998 37.4984C19.6152 37.6317 19.3999 37.6932 19.1436 37.6932C18.8872 37.6932 18.6719 37.6317 18.4873 37.4984C18.3027 37.3651 18.1592 37.1908 18.0566 36.9549C17.9541 36.7191 17.9028 36.4422 17.9028 36.1346V35.4476C17.9028 35.1092 17.9541 34.8221 18.0464 34.5863C18.1489 34.3505 18.2822 34.1659 18.4668 34.0326C18.6514 33.8993 18.8667 33.8377 19.123 33.8377C19.3794 33.8377 19.6049 33.8993 19.7896 34.0326C19.9741 34.1659 20.1074 34.3505 20.21 34.5966C20.3022 34.8427 20.3535 35.1502 20.3535 35.4989V36.0116V36.0218Z"
                fill="white" />
            <path fill-rule="evenodd" clip-rule="evenodd"
                d="M51.7094 38.9545C52.0887 39.2006 52.5401 39.3339 53.0732 39.3339C53.3194 39.3339 53.5449 39.3031 53.75 39.2519C53.9551 39.2006 54.1497 39.1186 54.3243 39.0263C54.4985 38.9237 54.6421 38.8007 54.765 38.6571C54.8883 38.5136 55.0011 38.3495 55.0727 38.1649L55.1651 37.8983V39.3442H57.2158V29.8286H55.1443V33.5917L55.0524 33.3661C54.9498 33.1201 54.796 32.8637 54.6112 32.6894C54.4268 32.515 54.201 32.392 53.945 32.2997C53.6886 32.2075 53.4012 32.1664 53.0936 32.1664C52.5604 32.1664 52.1095 32.2895 51.7298 32.5458C51.3505 32.7919 51.0534 33.2123 50.8585 33.684C50.6533 34.1557 50.5508 34.7196 50.5508 35.3861V36.1552C50.5508 36.8114 50.6533 37.4267 50.8483 37.8983C51.0534 38.37 51.3403 38.7289 51.7094 38.975V38.9545ZM52.6732 35.4887C52.6732 35.1298 52.7244 34.8325 52.8168 34.5864C52.9092 34.3403 53.0529 34.1454 53.2271 34.0121C53.4114 33.8788 53.6271 33.807 53.8831 33.807C54.1395 33.807 54.3548 33.8686 54.5396 34.0019C54.7239 34.1352 54.8676 34.3095 54.9701 34.5453C55.0727 34.7812 55.124 35.058 55.124 35.3759V36.0732C55.124 36.4115 55.0727 36.6986 54.9701 36.9345C54.8676 37.1703 54.7239 37.3549 54.5396 37.4882C54.3548 37.6215 54.1293 37.683 53.8831 37.683C53.6373 37.683 53.3911 37.6215 53.2169 37.4882C53.0321 37.3549 52.8885 37.1703 52.7965 36.914C52.7041 36.6679 52.6528 36.3603 52.6528 36.0014V35.4887H52.6732Z"
                fill="white" />
            <path fill-rule="evenodd" clip-rule="evenodd"
                d="M39.9795 37.2934C39.8974 37.437 39.7846 37.5498 39.6411 37.6318C39.4976 37.7138 39.3027 37.7549 39.0669 37.7549C38.6977 37.7549 38.4004 37.6011 38.1953 37.3037C37.9902 37.0063 37.8877 36.5859 37.8877 36.0527V35.4067C37.8877 34.9145 37.9902 34.5249 38.1953 34.2275C38.4004 33.9404 38.6977 33.7866 39.0669 33.7866C39.2925 33.7866 39.4873 33.8379 39.6308 33.9302C39.7744 34.0224 39.8974 34.1558 39.9692 34.3096C40.0512 34.4634 40.0923 34.6274 40.1025 34.7915H41.9586C41.9586 34.289 41.8353 33.8481 41.5997 33.4585C41.3636 33.0688 41.0254 32.7612 40.5845 32.5356C40.1435 32.31 39.6206 32.1973 38.9951 32.1973C38.3696 32.1973 37.7852 32.3306 37.3032 32.5869C36.8315 32.8535 36.4624 33.2226 36.1958 33.6943C35.9394 34.166 35.8062 34.73 35.8062 35.3862V36.0732C35.8062 36.75 35.9292 37.3345 36.1855 37.8164C36.4419 38.2983 36.8008 38.6777 37.2827 38.9341C37.7544 39.2007 38.3286 39.3237 38.9848 39.3237C39.6411 39.3237 40.1641 39.2109 40.605 38.9956C41.0458 38.7802 41.3844 38.4829 41.6098 38.0933C41.8353 37.7138 41.9586 37.2729 41.9688 36.7705H40.1128C40.0923 36.9653 40.0512 37.1396 39.9692 37.2832L39.9795 37.2934Z"
                fill="white" />
            <path fill-rule="evenodd" clip-rule="evenodd"
                d="M47.9877 32.5972C47.4956 32.3306 46.9214 32.1973 46.2548 32.1973C45.5885 32.1973 45.0143 32.3306 44.5219 32.6074C44.0298 32.8843 43.6505 33.2637 43.3839 33.7456C43.1174 34.2378 42.9839 34.8018 42.9839 35.4375V36.0322C42.9839 36.7295 43.1174 37.3242 43.3839 37.8164C43.6505 38.3086 44.0298 38.6777 44.5117 38.9341C45.0041 39.1904 45.5784 39.3135 46.2548 39.3135C46.9316 39.3135 47.4956 39.1904 47.9877 38.9341C48.4801 38.6777 48.8492 38.3086 49.1158 37.8164C49.3824 37.3242 49.5159 36.7295 49.5159 36.0322V35.4272C49.5159 34.771 49.3824 34.207 49.1158 33.7148C48.8492 33.2226 48.4699 32.8535 47.9877 32.5869V32.5972ZM47.4342 36.0732C47.4342 36.3604 47.3931 36.6372 47.3214 36.9038C47.2494 37.1601 47.1265 37.3755 46.9523 37.5395C46.7777 37.7036 46.5523 37.7856 46.2548 37.7856C45.9577 37.7856 45.7322 37.7036 45.5576 37.5395C45.3834 37.3755 45.2605 37.1601 45.1783 36.9038C45.0961 36.6372 45.0656 36.3706 45.0656 36.0835V35.4477C45.0656 35.1504 45.1067 34.8735 45.1885 34.6172C45.2707 34.3608 45.3936 34.1455 45.5678 33.9815C45.7424 33.8174 45.9678 33.7354 46.2548 33.7354C46.5421 33.7354 46.7676 33.8174 46.9421 33.9712C47.1163 34.125 47.2392 34.3403 47.3214 34.5967C47.4032 34.853 47.4444 35.1401 47.4444 35.4375V36.0732H47.4342Z"
                fill="white" />
            <path fill-rule="evenodd" clip-rule="evenodd"
                d="M28.3208 32.5869C27.8491 32.3306 27.2954 32.1973 26.6802 32.1973C26.0957 32.1973 25.5625 32.3203 25.0806 32.5561C24.5986 32.792 24.2192 33.1509 23.9321 33.6328C23.645 34.1147 23.5015 34.7095 23.5015 35.4272V36.0835C23.5015 36.8013 23.6347 37.396 23.9116 37.8779C24.1885 38.3598 24.5679 38.729 25.0601 38.9648C25.5522 39.2109 26.1265 39.3237 26.7725 39.3237C27.3056 39.3237 27.8081 39.2519 28.1772 39.1084C28.5566 38.9648 28.8642 38.7802 29.1001 38.5444C29.3359 38.3188 29.5205 38.0728 29.6333 37.8061C29.7563 37.5395 29.8179 37.2934 29.8281 37.0678H27.9414C27.9209 37.2114 27.8594 37.3345 27.7568 37.4473C27.6543 37.56 27.521 37.6421 27.3569 37.7036C27.1929 37.7651 26.957 37.7959 26.7519 37.7959C26.3828 37.7959 26.0854 37.6728 25.8496 37.437C25.6138 37.2012 25.4907 36.8833 25.4907 36.4834V36.2578H29.8179V35.417C29.8179 34.7505 29.6845 34.166 29.418 33.6841C29.1514 33.2021 28.7822 32.833 28.3105 32.5767L28.3208 32.5869ZM25.501 34.9863C25.501 34.7197 25.5522 34.4941 25.6548 34.2993C25.7573 34.1045 25.8906 33.9507 26.0752 33.8379C26.2495 33.7251 26.4648 33.6738 26.7007 33.6738C26.9365 33.6738 27.1416 33.7251 27.3159 33.8379C27.4902 33.9507 27.6235 34.1045 27.726 34.2993C27.8183 34.4941 27.8696 34.853 27.8696 35.1196H25.501"
                fill="white" />
            <path fill-rule="evenodd" clip-rule="evenodd"
                d="M63.0504 32.5869C62.5787 32.3306 62.0248 32.1973 61.4099 32.1973C60.825 32.1973 60.2919 32.3203 59.81 32.5561C59.3282 32.792 58.9489 33.1509 58.6615 33.6328C58.3746 34.1147 58.231 34.7095 58.231 35.4272V36.0835C58.231 36.8013 58.3644 37.396 58.6412 37.8779C58.9179 38.3598 59.2972 38.729 59.7897 38.9648C60.2817 39.2109 60.856 39.3237 61.5018 39.3237C62.035 39.3237 62.5274 39.2519 62.9067 39.1084C63.286 38.9648 63.5937 38.7802 63.8297 38.5444C64.0654 38.3188 64.2501 38.0728 64.373 37.8061C64.496 37.5395 64.5578 37.2934 64.568 37.0678H62.6812C62.6605 37.2114 62.599 37.3345 62.4965 37.4473C62.3939 37.56 62.2608 37.6421 62.0968 37.7036C61.9328 37.7651 61.6968 37.7959 61.4917 37.7959C61.1225 37.7959 60.825 37.6728 60.5894 37.437C60.3533 37.2012 60.2304 36.8833 60.2304 36.4834V36.2578H64.5578V35.417C64.5578 34.7505 64.4243 34.166 64.1578 33.6841C63.8912 33.2021 63.5221 32.833 63.0504 32.5767V32.5869ZM60.2304 34.9863C60.2304 34.7197 60.2817 34.4941 60.3843 34.2993C60.4868 34.1045 60.6203 33.9507 60.8047 33.8379C60.9789 33.7251 61.1942 33.6738 61.4302 33.6738C61.6658 33.6738 61.871 33.7251 62.0456 33.8379C62.2197 33.9507 62.3532 34.1045 62.4554 34.2993C62.5478 34.4941 62.599 34.853 62.599 35.1196H60.2304"
                fill="white" />
        </g>
    </g>
    <defs>
        <clipPath id="clip0_3310_41915">
            <rect width="70" height="40.6977" fill="white" />
        </clipPath>
    </defs>
</svg>