<svg width="16" height="18" viewBox="0 0 16 18" fill="none" xmlns="http://www.w3.org/2000/svg">
<path d="M15.696 18H12.9C12.708 18 12.552 17.948 12.432 17.844C12.312 17.74 12.216 17.624 12.144 17.496L7.848 10.572C7.816 10.668 7.78 10.76 7.74 10.848C7.708 10.936 7.668 11.02 7.62 11.1L3.468 17.496C3.38 17.624 3.28 17.74 3.168 17.844C3.064 17.948 2.924 18 2.748 18H0.132L5.964 9.12L0.372 0.719999H3.156C3.356 0.719999 3.5 0.751999 3.588 0.816C3.684 0.871999 3.768 0.959999 3.84 1.08L8.04 7.68C8.08 7.584 8.12 7.488 8.16 7.392C8.2 7.296 8.252 7.196 8.316 7.092L12.228 1.128C12.308 0.991999 12.396 0.891999 12.492 0.827999C12.588 0.755999 12.704 0.719999 12.84 0.719999H15.516L9.876 9L15.696 18Z" fill="#E6E6E6"/>
</svg>
