<svg width="241" height="115" viewBox="0 0 241 115" fill="none" xmlns="http://www.w3.org/2000/svg">
<path d="M34.9797 44.3279H55.767C58.9411 44.3279 61.5115 46.8983 61.5115 50.0725C61.5115 53.2466 58.9411 55.817 55.767 55.817H25.7563C22.5821 55.817 20.0117 58.3874 20.0117 61.5615C20.0117 64.7357 22.5821 67.3061 25.7563 67.3061H40.1262C43.3004 67.3061 45.8707 69.8764 45.8707 73.0506C45.8707 76.2248 43.3004 78.7951 40.1262 78.7951H25.7563C22.5821 78.7951 20.0117 81.3655 20.0117 84.5397C20.0117 87.7138 22.5821 90.2842 25.7563 90.2842H49.3842C52.5583 90.2842 55.1287 92.8546 55.1287 96.0287C55.1287 99.2029 52.5583 101.773 49.3842 101.773H42.6793C39.5052 101.773 36.9348 104.344 36.9348 107.518C36.9348 110.692 39.5052 113.262 42.6793 113.262H208.144C211.318 113.262 213.888 110.692 213.888 107.518C213.888 104.344 211.318 101.773 208.144 101.773H195.292C192.118 101.773 189.547 99.2029 189.547 96.0287C189.547 92.8546 192.118 90.2842 195.292 90.2842H208.144C211.318 90.2842 213.888 87.7138 213.888 84.5397C213.888 81.3655 211.318 78.7951 208.144 78.7951H185.35C182.175 78.7951 179.605 76.2248 179.605 73.0506C179.605 69.8764 182.175 67.3061 185.35 67.3061H211.013C214.187 67.3061 216.758 64.7357 216.758 61.5615C216.758 58.3874 214.187 55.817 211.013 55.817H181.882C178.708 55.817 176.138 53.2466 176.138 50.0725C176.138 46.8983 178.708 44.3279 181.882 44.3279H190.306C193.481 44.3279 196.051 41.7576 196.051 38.5834C196.051 35.4092 193.481 32.8389 190.306 32.8389H34.9797C31.8056 32.8389 29.2352 35.4092 29.2352 38.5834C29.2352 41.7576 31.8056 44.3279 34.9797 44.3279Z" fill="#EAF0FF"/>
<path d="M5.96305 55.8237H5.74453C2.57192 55.8237 0 58.3956 0 61.5683V61.7868C0 64.9594 2.57192 67.5313 5.74453 67.5313H5.96305C9.13566 67.5313 11.7076 64.9594 11.7076 61.7868V61.5683C11.7076 58.3956 9.13566 55.8237 5.96305 55.8237Z" fill="#EAF0FF"/>
<path d="M234.567 78.709H234.348C231.175 78.709 228.604 81.2809 228.604 84.4535V84.672C228.604 87.8446 231.175 90.4166 234.348 90.4166H234.567C237.739 90.4166 240.311 87.8446 240.311 84.672V84.4535C240.311 81.2809 237.739 78.709 234.567 78.709Z" fill="#EAF0FF"/>
<path d="M204.675 95.5933H193.18V107.088H204.675V95.5933Z" fill="#95B8FF"/>
<path d="M61.6472 70.5845H50.1523V82.0793H61.6472V70.5845Z" fill="#BFD4FF"/>
<path d="M187.959 25.457H172.312V40.8735H187.959V25.457Z" fill="#BFD4FF"/>
<path d="M35.6582 26.8027H20.0117V42.2192H35.6582V26.8027Z" fill="#95B8FF"/>
<path d="M189.12 95.7193H185.67C185.354 95.7193 185.095 95.4605 185.095 95.1442C185.095 94.828 185.354 94.5692 185.67 94.5692H188.057C188.16 94.4082 188.338 94.2989 188.545 94.2989C188.862 94.2989 189.12 94.5577 189.12 94.874V95.7193ZM182.795 95.7193H179.92C179.604 95.7193 179.345 95.4605 179.345 95.1442C179.345 94.828 179.604 94.5692 179.92 94.5692H182.795C183.111 94.5692 183.37 94.828 183.37 95.1442C183.37 95.4605 183.111 95.7193 182.795 95.7193ZM177.045 95.7193H174.17C173.853 95.7193 173.595 95.4605 173.595 95.1442C173.595 94.828 173.853 94.5692 174.17 94.5692H177.045C177.361 94.5692 177.62 94.828 177.62 95.1442C177.62 95.4605 177.361 95.7193 177.045 95.7193ZM171.295 95.7193H168.419C168.103 95.7193 167.844 95.4605 167.844 95.1442C167.844 94.828 168.103 94.5692 168.419 94.5692H171.295C171.611 94.5692 171.87 94.828 171.87 95.1442C171.87 95.4605 171.611 95.7193 171.295 95.7193ZM165.544 95.7193H162.669C162.353 95.7193 162.094 95.4605 162.094 95.1442C162.094 94.828 162.353 94.5692 162.669 94.5692H165.544C165.861 94.5692 166.119 94.828 166.119 95.1442C166.119 95.4605 165.861 95.7193 165.544 95.7193ZM159.794 95.7193H156.919C156.603 95.7193 156.344 95.4605 156.344 95.1442C156.344 94.828 156.603 94.5692 156.919 94.5692H159.794C160.11 94.5692 160.369 94.828 160.369 95.1442C160.369 95.4605 160.11 95.7193 159.794 95.7193ZM154.044 95.7193H151.169C150.852 95.7193 150.593 95.4605 150.593 95.1442C150.593 94.828 150.852 94.5692 151.169 94.5692H154.044C154.36 94.5692 154.619 94.828 154.619 95.1442C154.619 95.4605 154.36 95.7193 154.044 95.7193ZM148.293 95.7193H145.418C145.102 95.7193 144.843 95.4605 144.843 95.1442C144.843 94.828 145.102 94.5692 145.418 94.5692H148.293C148.61 94.5692 148.868 94.828 148.868 95.1442C148.868 95.4605 148.61 95.7193 148.293 95.7193ZM142.543 95.7193H139.668C139.352 95.7193 139.093 95.4605 139.093 95.1442C139.093 94.828 139.352 94.5692 139.668 94.5692H142.543C142.859 94.5692 143.118 94.828 143.118 95.1442C143.118 95.4605 142.859 95.7193 142.543 95.7193ZM136.793 95.7193H133.918C133.601 95.7193 133.343 95.4605 133.343 95.1442C133.343 94.828 133.601 94.5692 133.918 94.5692H136.793C137.109 94.5692 137.368 94.828 137.368 95.1442C137.368 95.4605 137.109 95.7193 136.793 95.7193ZM131.043 95.7193H128.167C127.851 95.7193 127.592 95.4605 127.592 95.1442C127.592 94.828 127.851 94.5692 128.167 94.5692H131.043C131.359 94.5692 131.618 94.828 131.618 95.1442C131.618 95.4605 131.359 95.7193 131.043 95.7193ZM125.292 95.7193H122.417C122.101 95.7193 121.842 95.4605 121.842 95.1442C121.842 94.828 122.101 94.5692 122.417 94.5692H125.292C125.609 94.5692 125.867 94.828 125.867 95.1442C125.867 95.4605 125.609 95.7193 125.292 95.7193ZM119.542 95.7193H116.667C116.351 95.7193 116.092 95.4605 116.092 95.1442C116.092 94.828 116.351 94.5692 116.667 94.5692H119.542C119.858 94.5692 120.117 94.828 120.117 95.1442C120.117 95.4605 119.858 95.7193 119.542 95.7193ZM113.792 95.7193H110.917C110.6 95.7193 110.342 95.4605 110.342 95.1442C110.342 94.828 110.6 94.5692 110.917 94.5692H113.792C114.108 94.5692 114.367 94.828 114.367 95.1442C114.367 95.4605 114.108 95.7193 113.792 95.7193ZM108.041 95.7193H105.166C104.85 95.7193 104.591 95.4605 104.591 95.1442C104.591 94.828 104.85 94.5692 105.166 94.5692H108.041C108.358 94.5692 108.616 94.828 108.616 95.1442C108.616 95.4605 108.358 95.7193 108.041 95.7193ZM102.291 95.7193H99.416C99.0997 95.7193 98.8409 95.4605 98.8409 95.1442C98.8409 94.828 99.0997 94.5692 99.416 94.5692H102.291C102.607 94.5692 102.866 94.828 102.866 95.1442C102.866 95.4605 102.607 95.7193 102.291 95.7193ZM96.5408 95.7193H93.6657C93.3494 95.7193 93.0907 95.4605 93.0907 95.1442C93.0907 94.828 93.3494 94.5692 93.6657 94.5692H96.5408C96.8571 94.5692 97.1158 94.828 97.1158 95.1442C97.1158 95.4605 96.8571 95.7193 96.5408 95.7193ZM90.7905 95.7193H87.9154C87.5991 95.7193 87.3404 95.4605 87.3404 95.1442C87.3404 94.828 87.5991 94.5692 87.9154 94.5692H90.7905C91.1068 94.5692 91.3656 94.828 91.3656 95.1442C91.3656 95.4605 91.1068 95.7193 90.7905 95.7193ZM85.0403 95.7193H82.1651C81.8488 95.7193 81.5901 95.4605 81.5901 95.1442C81.5901 94.828 81.8488 94.5692 82.1651 94.5692H85.0403C85.3565 94.5692 85.6153 94.828 85.6153 95.1442C85.6153 95.4605 85.3565 95.7193 85.0403 95.7193ZM79.29 95.7193H76.4148C76.0986 95.7193 75.8398 95.4605 75.8398 95.1442C75.8398 94.828 76.0986 94.5692 76.4148 94.5692H79.29C79.6062 94.5692 79.865 94.828 79.865 95.1442C79.865 95.4605 79.6062 95.7193 79.29 95.7193ZM73.5397 95.7193H70.6645C70.3483 95.7193 70.0895 95.4605 70.0895 95.1442C70.0895 94.828 70.3483 94.5692 70.6645 94.5692H73.5397C73.856 94.5692 74.1147 94.828 74.1147 95.1442C74.1147 95.4605 73.856 95.7193 73.5397 95.7193ZM67.7894 95.7193H64.9143C64.598 95.7193 64.3392 95.4605 64.3392 95.1442C64.3392 94.828 64.598 94.5692 64.9143 94.5692H67.7894C68.1057 94.5692 68.3644 94.828 68.3644 95.1442C68.3644 95.4605 68.1057 95.7193 67.7894 95.7193ZM62.0391 95.7193H59.164C58.8477 95.7193 58.5889 95.4605 58.5889 95.1442C58.5889 94.828 58.8477 94.5692 59.164 94.5692H62.0391C62.3554 94.5692 62.6141 94.828 62.6141 95.1442C62.6141 95.4605 62.3554 95.7193 62.0391 95.7193ZM56.2888 95.7193H55.1445V92.8384C55.1445 92.5221 55.4033 92.2633 55.7196 92.2633C56.0358 92.2633 56.2946 92.5221 56.2946 92.8384V94.5692C56.6109 94.5692 56.8639 94.828 56.8639 95.1442C56.8639 95.4605 56.6051 95.7193 56.2888 95.7193ZM188.545 92.5739C188.229 92.5739 187.97 92.3151 187.97 91.9988V89.1237C187.97 88.8074 188.229 88.5487 188.545 88.5487C188.862 88.5487 189.12 88.8074 189.12 89.1237V91.9988C189.12 92.3151 188.862 92.5739 188.545 92.5739ZM55.7196 90.5383C55.4033 90.5383 55.1445 90.2795 55.1445 89.9632V87.0881C55.1445 86.7718 55.4033 86.5131 55.7196 86.5131C56.0358 86.5131 56.2946 86.7718 56.2946 87.0881V89.9632C56.2946 90.2795 56.0358 90.5383 55.7196 90.5383ZM188.545 86.8236C188.229 86.8236 187.97 86.5648 187.97 86.2485V83.3734C187.97 83.0571 188.229 82.7984 188.545 82.7984C188.862 82.7984 189.12 83.0571 189.12 83.3734V86.2485C189.12 86.5648 188.862 86.8236 188.545 86.8236ZM55.7196 84.788C55.4033 84.788 55.1445 84.5292 55.1445 84.2129V81.3378C55.1445 81.0215 55.4033 80.7628 55.7196 80.7628C56.0358 80.7628 56.2946 81.0215 56.2946 81.3378V84.2129C56.2946 84.5292 56.0358 84.788 55.7196 84.788ZM188.545 81.0733C188.229 81.0733 187.97 80.8145 187.97 80.4983V77.6231C187.97 77.3069 188.229 77.0481 188.545 77.0481C188.862 77.0481 189.12 77.3069 189.12 77.6231V80.4983C189.12 80.8145 188.862 81.0733 188.545 81.0733ZM55.7196 79.0377C55.4033 79.0377 55.1445 78.7789 55.1445 78.4627V75.5875C55.1445 75.2712 55.4033 75.0125 55.7196 75.0125C56.0358 75.0125 56.2946 75.2712 56.2946 75.5875V78.4627C56.2946 78.7789 56.0358 79.0377 55.7196 79.0377ZM188.545 75.323C188.229 75.323 187.97 75.0642 187.97 74.748V71.8728C187.97 71.5566 188.229 71.2978 188.545 71.2978C188.862 71.2978 189.12 71.5566 189.12 71.8728V74.748C189.12 75.0642 188.862 75.323 188.545 75.323ZM55.7196 73.2874C55.4033 73.2874 55.1445 73.0286 55.1445 72.7124V69.8372C55.1445 69.521 55.4033 69.2622 55.7196 69.2622C56.0358 69.2622 56.2946 69.521 56.2946 69.8372V72.7124C56.2946 73.0286 56.0358 73.2874 55.7196 73.2874ZM188.545 69.5727C188.229 69.5727 187.97 69.314 187.97 68.9977V66.1225C187.97 65.8063 188.229 65.5475 188.545 65.5475C188.862 65.5475 189.12 65.8063 189.12 66.1225V68.9977C189.12 69.314 188.862 69.5727 188.545 69.5727ZM55.7196 67.5371C55.4033 67.5371 55.1445 67.2784 55.1445 66.9621V64.0869C55.1445 63.7707 55.4033 63.5119 55.7196 63.5119C56.0358 63.5119 56.2946 63.7707 56.2946 64.0869V66.9621C56.2946 67.2784 56.0358 67.5371 55.7196 67.5371ZM188.545 63.8224C188.229 63.8224 187.97 63.5637 187.97 63.2474V60.3723C187.97 60.056 188.229 59.7972 188.545 59.7972C188.862 59.7972 189.12 60.056 189.12 60.3723V63.2474C189.12 63.5637 188.862 63.8224 188.545 63.8224ZM55.7196 61.7868C55.4033 61.7868 55.1445 61.5281 55.1445 61.2118V58.3367C55.1445 58.0204 55.4033 57.7616 55.7196 57.7616C56.0358 57.7616 56.2946 58.0204 56.2946 58.3367V61.2118C56.2946 61.5281 56.0358 61.7868 55.7196 61.7868ZM188.545 58.0722C188.229 58.0722 187.97 57.8134 187.97 57.4971V54.622C187.97 54.3057 188.229 54.047 188.545 54.047C188.862 54.047 189.12 54.3057 189.12 54.622V57.4971C189.12 57.8134 188.862 58.0722 188.545 58.0722ZM55.7196 56.0366C55.4033 56.0366 55.1445 55.7778 55.1445 55.4615V52.5864C55.1445 52.2701 55.4033 52.0114 55.7196 52.0114C56.0358 52.0114 56.2946 52.2701 56.2946 52.5864V55.4615C56.2946 55.7778 56.0358 56.0366 55.7196 56.0366ZM188.545 52.3219C188.229 52.3219 187.97 52.0631 187.97 51.7468V48.8717C187.97 48.5554 188.229 48.2967 188.545 48.2967C188.862 48.2967 189.12 48.5554 189.12 48.8717V51.7468C189.12 52.0631 188.862 52.3219 188.545 52.3219ZM55.7196 50.2863C55.4033 50.2863 55.1445 50.0275 55.1445 49.7112V46.8361C55.1445 46.5198 55.4033 46.2611 55.7196 46.2611C56.0358 46.2611 56.2946 46.5198 56.2946 46.8361V49.7112C56.2946 50.0275 56.0358 50.2863 55.7196 50.2863ZM188.545 46.5716C188.229 46.5716 187.97 46.3128 187.97 45.9966V43.1214C187.97 42.8051 188.229 42.5464 188.545 42.5464C188.862 42.5464 189.12 42.8051 189.12 43.1214V45.9966C189.12 46.3128 188.862 46.5716 188.545 46.5716ZM55.7196 44.536C55.4033 44.536 55.1445 44.2772 55.1445 43.961V41.0858C55.1445 40.7695 55.4033 40.5108 55.7196 40.5108C56.0358 40.5108 56.2946 40.7695 56.2946 41.0858V43.961C56.2946 44.2772 56.0358 44.536 55.7196 44.536ZM188.545 40.8213C188.229 40.8213 187.97 40.5625 187.97 40.2463V37.3711C187.97 37.0549 188.229 36.7961 188.545 36.7961C188.862 36.7961 189.12 37.0549 189.12 37.3711V40.2463C189.12 40.5625 188.862 40.8213 188.545 40.8213ZM55.7196 38.7857C55.4033 38.7857 55.1445 38.5269 55.1445 38.2107V35.3355C55.1445 35.0193 55.4033 34.7605 55.7196 34.7605C56.0358 34.7605 56.2946 35.0193 56.2946 35.3355V38.2107C56.2946 38.5269 56.0358 38.7857 55.7196 38.7857ZM188.545 35.071C188.229 35.071 187.97 34.8123 187.97 34.496V31.6208C187.97 31.3046 188.229 31.0458 188.545 31.0458C188.862 31.0458 189.12 31.3046 189.12 31.6208V34.496C189.12 34.8123 188.862 35.071 188.545 35.071ZM55.7196 33.0354C55.4033 33.0354 55.1445 32.7767 55.1445 32.4604V29.5852C55.1445 29.269 55.4033 29.0102 55.7196 29.0102C56.0358 29.0102 56.2946 29.269 56.2946 29.5852V32.4604C56.2946 32.7767 56.0358 33.0354 55.7196 33.0354ZM188.545 29.3207C188.229 29.3207 187.97 29.062 187.97 28.7457V27.1529H187.838C187.522 27.1529 187.263 26.8941 187.263 26.5779C187.263 26.2616 187.522 26.0028 187.838 26.0028H189.12V28.7457C189.12 29.062 188.862 29.3207 188.545 29.3207ZM55.7196 27.2851C55.4033 27.2851 55.1445 27.0264 55.1445 26.7101V25.9971H58.4567C58.773 25.9971 59.0317 26.2558 59.0317 26.5721C59.0317 26.8884 58.773 27.1471 58.4567 27.1471H56.0876C55.9898 27.2334 55.8576 27.2851 55.7138 27.2851H55.7196ZM184.963 27.1471H182.088C181.772 27.1471 181.513 26.8884 181.513 26.5721C181.513 26.2558 181.772 25.9971 182.088 25.9971H184.963C185.279 25.9971 185.538 26.2558 185.538 26.5721C185.538 26.8884 185.279 27.1471 184.963 27.1471ZM179.213 27.1471H176.338C176.021 27.1471 175.762 26.8884 175.762 26.5721C175.762 26.2558 176.021 25.9971 176.338 25.9971H179.213C179.529 25.9971 179.788 26.2558 179.788 26.5721C179.788 26.8884 179.529 27.1471 179.213 27.1471ZM173.462 27.1471H170.587C170.271 27.1471 170.012 26.8884 170.012 26.5721C170.012 26.2558 170.271 25.9971 170.587 25.9971H173.462C173.779 25.9971 174.037 26.2558 174.037 26.5721C174.037 26.8884 173.779 27.1471 173.462 27.1471ZM167.712 27.1471H164.837C164.521 27.1471 164.262 26.8884 164.262 26.5721C164.262 26.2558 164.521 25.9971 164.837 25.9971H167.712C168.028 25.9971 168.287 26.2558 168.287 26.5721C168.287 26.8884 168.028 27.1471 167.712 27.1471ZM161.962 27.1471H159.087C158.77 27.1471 158.512 26.8884 158.512 26.5721C158.512 26.2558 158.77 25.9971 159.087 25.9971H161.962C162.278 25.9971 162.537 26.2558 162.537 26.5721C162.537 26.8884 162.278 27.1471 161.962 27.1471ZM156.212 27.1471H153.336C153.02 27.1471 152.761 26.8884 152.761 26.5721C152.761 26.2558 153.02 25.9971 153.336 25.9971H156.212C156.528 25.9971 156.787 26.2558 156.787 26.5721C156.787 26.8884 156.528 27.1471 156.212 27.1471ZM150.461 27.1471H147.586C147.27 27.1471 147.011 26.8884 147.011 26.5721C147.011 26.2558 147.27 25.9971 147.586 25.9971H150.461C150.778 25.9971 151.036 26.2558 151.036 26.5721C151.036 26.8884 150.778 27.1471 150.461 27.1471ZM144.711 27.1471H141.836C141.52 27.1471 141.261 26.8884 141.261 26.5721C141.261 26.2558 141.52 25.9971 141.836 25.9971H144.711C145.027 25.9971 145.286 26.2558 145.286 26.5721C145.286 26.8884 145.027 27.1471 144.711 27.1471ZM138.961 27.1471H136.086C135.769 27.1471 135.51 26.8884 135.51 26.5721C135.51 26.2558 135.769 25.9971 136.086 25.9971H138.961C139.277 25.9971 139.536 26.2558 139.536 26.5721C139.536 26.8884 139.277 27.1471 138.961 27.1471ZM133.21 27.1471H130.335C130.019 27.1471 129.76 26.8884 129.76 26.5721C129.76 26.2558 130.019 25.9971 130.335 25.9971H133.21C133.527 25.9971 133.785 26.2558 133.785 26.5721C133.785 26.8884 133.527 27.1471 133.21 27.1471ZM127.46 27.1471H124.585C124.269 27.1471 124.01 26.8884 124.01 26.5721C124.01 26.2558 124.269 25.9971 124.585 25.9971H127.46C127.776 25.9971 128.035 26.2558 128.035 26.5721C128.035 26.8884 127.776 27.1471 127.46 27.1471ZM121.71 27.1471H118.835C118.518 27.1471 118.26 26.8884 118.26 26.5721C118.26 26.2558 118.518 25.9971 118.835 25.9971H121.71C122.026 25.9971 122.285 26.2558 122.285 26.5721C122.285 26.8884 122.026 27.1471 121.71 27.1471ZM115.96 27.1471H113.084C112.768 27.1471 112.509 26.8884 112.509 26.5721C112.509 26.2558 112.768 25.9971 113.084 25.9971H115.96C116.276 25.9971 116.535 26.2558 116.535 26.5721C116.535 26.8884 116.276 27.1471 115.96 27.1471ZM110.209 27.1471H107.334C107.018 27.1471 106.759 26.8884 106.759 26.5721C106.759 26.2558 107.018 25.9971 107.334 25.9971H110.209C110.526 25.9971 110.784 26.2558 110.784 26.5721C110.784 26.8884 110.526 27.1471 110.209 27.1471ZM104.459 27.1471H101.584C101.268 27.1471 101.009 26.8884 101.009 26.5721C101.009 26.2558 101.268 25.9971 101.584 25.9971H104.459C104.775 25.9971 105.034 26.2558 105.034 26.5721C105.034 26.8884 104.775 27.1471 104.459 27.1471ZM98.7087 27.1471H95.8335C95.5173 27.1471 95.2585 26.8884 95.2585 26.5721C95.2585 26.2558 95.5173 25.9971 95.8335 25.9971H98.7087C99.0249 25.9971 99.2837 26.2558 99.2837 26.5721C99.2837 26.8884 99.0249 27.1471 98.7087 27.1471ZM92.9584 27.1471H90.0833C89.767 27.1471 89.5082 26.8884 89.5082 26.5721C89.5082 26.2558 89.767 25.9971 90.0833 25.9971H92.9584C93.2747 25.9971 93.5334 26.2558 93.5334 26.5721C93.5334 26.8884 93.2747 27.1471 92.9584 27.1471ZM87.2081 27.1471H84.333C84.0167 27.1471 83.7579 26.8884 83.7579 26.5721C83.7579 26.2558 84.0167 25.9971 84.333 25.9971H87.2081C87.5244 25.9971 87.7831 26.2558 87.7831 26.5721C87.7831 26.8884 87.5244 27.1471 87.2081 27.1471ZM81.4578 27.1471H78.5827C78.2664 27.1471 78.0077 26.8884 78.0077 26.5721C78.0077 26.2558 78.2664 25.9971 78.5827 25.9971H81.4578C81.7741 25.9971 82.0329 26.2558 82.0329 26.5721C82.0329 26.8884 81.7741 27.1471 81.4578 27.1471ZM75.7075 27.1471H72.8324C72.5161 27.1471 72.2574 26.8884 72.2574 26.5721C72.2574 26.2558 72.5161 25.9971 72.8324 25.9971H75.7075C76.0238 25.9971 76.2826 26.2558 76.2826 26.5721C76.2826 26.8884 76.0238 27.1471 75.7075 27.1471ZM69.9573 27.1471H67.0821C66.7659 27.1471 66.5071 26.8884 66.5071 26.5721C66.5071 26.2558 66.7659 25.9971 67.0821 25.9971H69.9573C70.2735 25.9971 70.5323 26.2558 70.5323 26.5721C70.5323 26.8884 70.2735 27.1471 69.9573 27.1471ZM64.207 27.1471H61.3318C61.0156 27.1471 60.7568 26.8884 60.7568 26.5721C60.7568 26.2558 61.0156 25.9971 61.3318 25.9971H64.207C64.5232 25.9971 64.782 26.2558 64.782 26.5721C64.782 26.8884 64.5232 27.1471 64.207 27.1471Z" fill="#5E5E5E"/>
<path d="M176.77 47.5663H202.669C206.763 47.5663 210.087 50.89 210.087 54.9842V65.4727C210.087 69.5669 206.763 72.8905 202.669 72.8905H192.824L189.639 76.0762C188.926 76.7892 187.701 76.2832 187.701 75.2712V72.8848H176.775C172.681 72.8848 169.357 69.5611 169.357 65.4669V54.9784C169.357 50.8842 172.681 47.5605 176.775 47.5605L176.77 47.5663Z" fill="white"/>
<path d="M188.84 76.9904C188.616 76.9904 188.391 76.9444 188.173 76.8582C187.523 76.5879 187.115 75.9841 187.115 75.2769V73.4655H176.764C172.36 73.4655 168.771 69.8773 168.771 65.4726V54.9841C168.771 50.5736 172.36 46.9912 176.764 46.9912H199.559C199.875 46.9912 200.134 47.25 200.134 47.5662C200.134 47.8825 199.875 48.1413 199.559 48.1413H176.764C172.992 48.1413 169.922 51.2119 169.922 54.9841V65.4726C169.922 69.2448 172.992 72.3155 176.764 72.3155H188.265V75.2769C188.265 75.6219 188.529 75.7599 188.61 75.7944C188.69 75.8289 188.978 75.9209 189.219 75.6736L192.578 72.3155H202.664C206.436 72.3155 209.506 69.2448 209.506 65.4726V54.9841C209.506 54.6678 209.765 54.4091 210.082 54.4091C210.398 54.4091 210.657 54.6678 210.657 54.9841V65.4726C210.657 69.8831 207.068 73.4655 202.664 73.4655H193.055L190.036 76.4844C189.703 76.8179 189.277 76.9904 188.84 76.9904Z" fill="#5E5E5E"/>
<path d="M197.138 63.2884C195.482 63.2884 194.137 61.9429 194.137 60.2868C194.137 58.6307 195.482 57.2852 197.138 57.2852C198.794 57.2852 200.14 58.6307 200.14 60.2868C200.14 61.9429 198.794 63.2884 197.138 63.2884ZM197.138 58.4352C196.115 58.4352 195.287 59.269 195.287 60.2868C195.287 61.3046 196.121 62.1384 197.138 62.1384C198.156 62.1384 198.99 61.3046 198.99 60.2868C198.99 59.269 198.156 58.4352 197.138 58.4352Z" fill="#5E5E5E"/>
<path d="M189.041 63.2884C187.385 63.2884 186.039 61.9429 186.039 60.2868C186.039 58.6307 187.385 57.2852 189.041 57.2852C190.697 57.2852 192.042 58.6307 192.042 60.2868C192.042 61.9429 190.697 63.2884 189.041 63.2884ZM189.041 58.4352C188.017 58.4352 187.189 59.269 187.189 60.2868C187.189 61.3046 188.023 62.1384 189.041 62.1384C190.059 62.1384 190.892 61.3046 190.892 60.2868C190.892 59.269 190.059 58.4352 189.041 58.4352Z" fill="#5E5E5E"/>
<path d="M180.949 63.2884C179.293 63.2884 177.947 61.9429 177.947 60.2868C177.947 58.6307 179.293 57.2852 180.949 57.2852C182.605 57.2852 183.951 58.6307 183.951 60.2868C183.951 61.9429 182.605 63.2884 180.949 63.2884ZM180.949 58.4352C179.925 58.4352 179.097 59.269 179.097 60.2868C179.097 61.3046 179.931 62.1384 180.949 62.1384C181.967 62.1384 182.801 61.3046 182.801 60.2868C182.801 59.269 181.967 58.4352 180.949 58.4352Z" fill="#5E5E5E"/>
<path d="M73.8972 83.4823H47.9979C43.9037 83.4823 40.5801 86.806 40.5801 90.9002V101.389C40.5801 105.483 43.9037 108.807 47.9979 108.807H57.8424L61.0281 111.992C61.7411 112.705 62.9659 112.199 62.9659 111.187V108.801H73.8915C77.9857 108.801 81.3093 105.477 81.3093 101.383V90.8944C81.3093 86.8002 77.9857 83.4766 73.8915 83.4766L73.8972 83.4823Z" fill="white"/>
<path d="M78.0958 108.082C77.9118 108.082 77.7336 107.996 77.6186 107.835C77.4403 107.571 77.5036 107.214 77.7681 107.036C79.6312 105.759 80.7467 103.649 80.7467 101.389V90.9006C80.7467 87.1284 77.6761 84.0578 73.9039 84.0578H48.0046C44.2324 84.0578 41.1618 87.1284 41.1618 90.9006C41.1618 91.2169 40.903 91.4756 40.5867 91.4756C40.2705 91.4756 40.0117 91.2169 40.0117 90.9006C40.0117 86.4959 43.5999 82.9077 48.0046 82.9077H73.9039C78.3086 82.9077 81.8968 86.4959 81.8968 90.9006V101.389C81.8968 104.029 80.5972 106.49 78.4236 107.985C78.3259 108.054 78.2109 108.088 78.1016 108.088L78.0958 108.082Z" fill="#5E5E5E"/>
<path d="M61.8283 112.902C61.3855 112.902 60.96 112.729 60.6322 112.396L57.6133 109.377H48.0046C43.5999 109.377 40.0117 105.789 40.0117 101.384V95.0355C40.0117 94.7192 40.2705 94.4604 40.5867 94.4604C40.903 94.4604 41.1618 94.7192 41.1618 95.0355V101.384C41.1618 105.156 44.2324 108.227 48.0046 108.227H58.0906L61.4488 111.585C61.696 111.832 61.9778 111.74 62.0583 111.706C62.1388 111.671 62.4033 111.533 62.4033 111.188V108.227H73.9039C74.2202 108.227 74.4789 108.485 74.4789 108.802C74.4789 109.118 74.2202 109.377 73.9039 109.377H63.5534V111.188C63.5534 111.895 63.1509 112.499 62.4953 112.769C62.2768 112.861 62.0526 112.902 61.8283 112.902Z" fill="#5E5E5E"/>
<path d="M57.0959 100.4C54.6578 100.4 52.6797 98.4165 52.6797 95.9783C52.6797 95.6621 52.9385 95.4033 53.2547 95.4033C53.571 95.4033 53.8297 95.6621 53.8297 95.9783C53.8297 97.7782 55.2961 99.2503 57.0959 99.2503C58.8957 99.2503 60.3678 97.7839 60.3678 95.9783C60.3678 95.6621 60.6266 95.4033 60.9428 95.4033C61.2591 95.4033 61.5179 95.6621 61.5179 95.9783C61.5179 98.4165 59.534 100.4 57.0959 100.4Z" fill="#5E5E5E"/>
<path d="M64.7833 100.4C62.3452 100.4 60.3613 98.4165 60.3613 95.9783C60.3613 95.6621 60.6201 95.4033 60.9364 95.4033C61.2526 95.4033 61.5114 95.6621 61.5114 95.9783C61.5114 97.7782 62.9777 99.2503 64.7833 99.2503C66.5889 99.2503 68.0495 97.7839 68.0495 95.9783C68.0495 95.6621 68.3082 95.4033 68.6245 95.4033C68.9407 95.4033 69.1995 95.6621 69.1995 95.9783C69.1995 98.4165 67.2157 100.4 64.7833 100.4Z" fill="#5E5E5E"/>
<path d="M73.8048 15.0725L47.9112 15.245C43.817 15.2737 40.5164 18.6146 40.5451 22.7146L40.6141 33.2031C40.6429 37.2973 43.9838 40.598 48.0837 40.5692L57.9282 40.506L61.1369 43.6744C61.8557 44.3874 63.0747 43.8699 63.069 42.8578L63.0517 40.4715L73.9773 40.3967C78.0715 40.368 81.3721 37.027 81.3434 32.9271L81.2744 22.4386C81.2456 18.3444 77.9047 15.0437 73.8048 15.0725Z" fill="white"/>
<path d="M61.9195 44.5768C61.4825 44.5768 61.057 44.4043 60.7292 44.0823L57.6873 41.0864L48.0786 41.1496C48.0786 41.1496 48.0441 41.1496 48.0269 41.1496C43.6451 41.1496 40.0627 37.6017 40.034 33.2085L39.965 22.72C39.9535 20.5866 40.77 18.574 42.2708 17.0502C43.7717 15.5321 45.7727 14.6868 47.9061 14.6696L59.4929 14.5833C59.8092 14.5833 60.068 14.8363 60.068 15.1526C60.068 15.4689 59.8149 15.7276 59.4987 15.7334L47.9119 15.8196C46.0833 15.8311 44.3697 16.5557 43.0874 17.8552C41.8051 19.1548 41.1035 20.8799 41.115 22.7085L41.184 33.197C41.207 36.9577 44.2719 39.9938 48.0269 39.9938C48.0441 39.9938 48.0556 39.9938 48.0729 39.9938L58.1589 39.9248L61.5343 43.26C61.7815 43.5015 62.0633 43.4095 62.1438 43.375C62.2243 43.3405 62.4888 43.2025 62.4888 42.8575L62.4716 39.8961L73.9721 39.8213C77.7443 39.7983 80.792 36.7047 80.769 32.9325L80.7 22.444C80.6885 20.6154 79.9639 18.9018 78.6644 17.6195C77.3763 16.3487 75.6685 15.6471 73.8571 15.6471C73.8399 15.6471 73.8284 15.6471 73.8111 15.6471L64.7659 15.7046C64.4497 15.7046 64.1909 15.4516 64.1909 15.1354C64.1909 14.8191 64.4439 14.5603 64.7602 14.5546L73.8054 14.4971C75.9445 14.5028 77.9513 15.3021 79.4752 16.8029C80.9932 18.3038 81.8385 20.3049 81.8558 22.4382L81.9248 32.9267C81.9535 37.3314 78.3941 40.9426 73.9836 40.9714L63.6331 41.0404L63.6446 42.8517C63.6446 43.559 63.2479 44.1628 62.5981 44.4388C62.3796 44.5308 62.1496 44.5768 61.9195 44.5768Z" fill="#5E5E5E"/>
<path d="M46.8035 26.3022C46.3147 26.3022 45.918 25.8997 45.918 25.4109V22.3517C45.918 21.863 46.3205 21.4604 46.8035 21.4604C47.2923 21.4604 47.6891 21.863 47.6891 22.3517V25.4109C47.6891 25.8997 47.2865 26.3022 46.8035 26.3022Z" fill="#5E5E5E"/>
<path d="M57.9343 26.3022C57.4455 26.3022 57.043 25.8997 57.043 25.4109V22.3517C57.043 21.863 57.4455 21.4604 57.9343 21.4604C58.423 21.4604 58.8256 21.863 58.8256 22.3517V25.4109C58.8256 25.8997 58.423 26.3022 57.9343 26.3022Z" fill="#5E5E5E"/>
<path d="M54.6577 31.4422C54.6577 32.1034 54.123 32.6382 53.4617 32.6382C52.8004 32.6382 52.2656 32.1034 52.2656 31.4422C52.2656 30.7809 52.8004 30.2461 53.4617 30.2461C54.123 30.2461 54.6577 30.7809 54.6577 31.4422Z" fill="#5E5E5E"/>
<path d="M139.65 73.3173H166.291C172.433 73.3173 177.418 68.3375 177.418 62.1905V42.5475C177.418 29.0458 166.475 18.103 152.974 18.103C139.472 18.103 128.529 29.0458 128.529 42.5475V62.1905C128.529 68.3318 133.509 73.3173 139.656 73.3173H139.65Z" fill="#95B8FF"/>
<path d="M166.294 73.8911H139.653C133.201 73.8911 127.957 68.6411 127.957 62.1893V42.5463C127.957 28.7514 139.182 17.5269 152.977 17.5269C157.582 17.5269 162.091 18.7919 166.001 21.1783C166.271 21.345 166.357 21.6958 166.191 21.9718C166.024 22.2421 165.673 22.3283 165.403 22.1616C161.671 19.8845 157.375 18.6769 152.977 18.6769C139.814 18.6769 129.107 29.3839 129.107 42.5463V62.1893C129.107 68.0086 133.84 72.7411 139.653 72.7411H166.294C172.113 72.7411 176.84 68.0086 176.84 62.1893V42.5463C176.84 36.267 174.419 30.3385 170.032 25.8533C169.808 25.629 169.813 25.261 170.043 25.0425C170.268 24.8182 170.636 24.824 170.854 25.054C175.454 29.7577 177.99 35.968 177.99 42.5521V62.1951C177.99 68.6469 172.74 73.8969 166.294 73.8969V73.8911Z" fill="#5E5E5E"/>
<path d="M148.103 76.7544H157.844V69.8828H148.103V76.7544Z" fill="white"/>
<path d="M158.42 77.3302H147.529V69.3086H158.42V77.3302ZM148.679 76.1802H157.27V70.4587H148.679V76.1802Z" fill="#5E5E5E"/>
<path d="M137.581 46.199C142.957 46.199 147.322 41.8345 147.322 36.458H166.177C167.384 36.458 168.362 37.4356 168.362 38.6431V46.199C169.932 46.199 171.208 47.4698 171.208 49.0454C171.208 50.621 169.938 51.8918 168.362 51.8918V55.2672C168.362 63.6511 161.789 70.7412 153.406 70.9712C144.711 71.207 137.581 64.2319 137.581 55.5892V51.8918C136.011 51.8918 134.734 50.621 134.734 49.0454C134.734 47.4698 136.005 46.199 137.581 46.199Z" fill="white"/>
<path d="M152.969 71.5451C148.783 71.5451 144.85 69.9523 141.843 67.0254C138.726 63.995 137.012 59.9295 137.012 55.5823V52.4139C135.402 52.1379 134.166 50.7348 134.166 49.0442C134.166 47.3537 135.397 45.9506 137.012 45.6746V45.6228H137.587C142.642 45.6228 146.753 41.5114 146.753 36.4569V35.8818H165.384C167.345 35.8818 168.944 37.4804 168.944 39.4413V45.6746C170.554 45.9506 171.79 47.3537 171.79 49.0442C171.79 50.7348 170.56 52.1379 168.944 52.4139V55.266C168.944 64.0065 161.986 71.3093 153.429 71.5451C153.28 71.5451 153.125 71.5508 152.975 71.5508L152.969 71.5451ZM138.162 46.7499V46.7671H137.587C136.334 46.7671 135.316 47.7907 135.316 49.0385C135.316 50.2863 136.334 51.3098 137.587 51.3098H138.162V55.5823C138.162 59.619 139.755 63.3854 142.648 66.2031C145.54 69.015 149.358 70.51 153.395 70.395C161.336 70.1765 167.794 63.3912 167.794 55.266V51.3156H168.369C169.622 51.3156 170.64 50.2978 170.64 49.0442C170.64 47.7907 169.622 46.7729 168.369 46.7729H167.794V39.4355C167.794 38.1072 166.713 37.0261 165.384 37.0261H147.886C147.599 42.2589 143.395 46.4624 138.162 46.7499Z" fill="#5E5E5E"/>
<path d="M164.234 50.3378C163.917 50.3378 163.659 50.079 163.659 49.7628C163.659 47.8479 162.1 46.2838 160.18 46.2838C158.259 46.2838 156.701 47.8422 156.701 49.7628C156.701 50.079 156.442 50.3378 156.126 50.3378C155.81 50.3378 155.551 50.079 155.551 49.7628C155.551 47.2096 157.627 45.1338 160.18 45.1338C162.733 45.1338 164.809 47.2096 164.809 49.7628C164.809 50.079 164.55 50.3378 164.234 50.3378Z" fill="#5E5E5E"/>
<path d="M149.847 50.3378C149.531 50.3378 149.272 50.079 149.272 49.7628C149.272 47.8479 147.714 46.2838 145.793 46.2838C143.872 46.2838 142.314 47.8422 142.314 49.7628C142.314 50.079 142.055 50.3378 141.739 50.3378C141.423 50.3378 141.164 50.079 141.164 49.7628C141.164 47.2096 143.24 45.1338 145.793 45.1338C148.346 45.1338 150.422 47.2096 150.422 49.7628C150.422 50.079 150.163 50.3378 149.847 50.3378Z" fill="#5E5E5E"/>
<path d="M168.185 113.527V85.7593C168.185 80.7853 164.154 76.7544 159.18 76.7544H146.765C141.791 76.7544 137.76 80.7853 137.76 85.7593V113.527H168.179H168.185Z" fill="white"/>
<path d="M137.764 111.4C137.448 111.4 137.189 111.141 137.189 110.825V85.7538C137.189 80.475 141.485 76.1738 146.769 76.1738H159.184C162.232 76.1738 165.032 77.5769 166.855 80.0208C167.045 80.2738 166.993 80.636 166.74 80.8258C166.487 81.0156 166.125 80.9638 165.935 80.7108C164.325 78.5602 161.864 77.3239 159.184 77.3239H146.769C142.123 77.3239 138.34 81.1018 138.34 85.7538V110.825C138.34 111.141 138.081 111.4 137.764 111.4Z" fill="#5E5E5E"/>
<path d="M168.184 114.103C167.868 114.103 167.609 113.844 167.609 113.528V85.7596C167.609 85.4433 167.868 85.1846 168.184 85.1846C168.501 85.1846 168.759 85.4433 168.759 85.7596V113.528C168.759 113.844 168.501 114.103 168.184 114.103Z" fill="#5E5E5E"/>
<path d="M87.9414 59.791H80.1152V72.4991H87.9414V59.791Z" fill="white"/>
<path d="M87.9461 73.0799H80.12C79.8037 73.0799 79.5449 72.8211 79.5449 72.5048V59.7967C79.5449 59.4804 79.8037 59.2217 80.12 59.2217H87.9461C88.2624 59.2217 88.5211 59.4804 88.5211 59.7967V72.5048C88.5211 72.8211 88.2624 73.0799 87.9461 73.0799ZM80.695 71.9298H87.3711V60.3717H80.695V71.9298Z" fill="#5E5E5E"/>
<path d="M67.8477 28.9365H100.204V50.3621C100.204 59.2923 92.9534 66.5376 84.029 66.5376C75.0988 66.5376 67.8534 59.2865 67.8534 50.3621V28.9365H67.8477Z" fill="white"/>
<path d="M84.0278 67.1125C74.7871 67.1125 67.2715 59.5969 67.2715 50.3619V28.9364C67.2715 28.6201 67.5302 28.3613 67.8465 28.3613H100.203C100.52 28.3613 100.778 28.6201 100.778 28.9364V50.3619C100.778 59.6026 93.2628 67.1125 84.0278 67.1125ZM68.4215 29.5114V50.3619C68.4215 58.9643 75.4196 65.9624 84.0221 65.9624C92.6245 65.9624 99.6226 58.9643 99.6226 50.3619V29.5114H68.4158H68.4215Z" fill="#5E5E5E"/>
<path d="M99.4744 25.9743C99.4801 25.8593 99.4916 25.7443 99.4916 25.6293C99.4916 22.3172 96.7775 19.603 93.4653 19.603C90.6707 19.603 88.3073 21.5351 87.6345 24.1285C87.025 22.5069 85.4552 21.3454 83.6323 21.3454C81.568 21.3454 79.8314 22.8232 79.4346 24.7783C78.8941 22.6047 76.9275 20.9773 74.5929 20.9773C71.8443 20.9773 69.5959 23.2257 69.5959 25.9743H68.5838C66.0767 25.9743 64.0469 28.0042 64.0469 30.5113V49.1307C64.0469 51.2353 65.749 52.9374 67.8536 52.9374L70.1709 36.5089C70.4757 34.364 72.31 32.7654 74.4779 32.7654H93.5861C95.7539 32.7654 97.5883 34.3583 97.8931 36.5089L100.21 52.9374C102.315 52.9374 104.017 51.2353 104.017 49.1307V30.5113C104.017 28.0042 101.987 25.9743 99.4801 25.9743H99.4744Z" fill="#95B8FF"/>
<path d="M64.0399 33.3463C63.7236 33.3463 63.4648 33.0876 63.4648 32.7713V30.5172C63.4648 27.6996 65.7592 25.4052 68.5768 25.4052H69.0426C69.3301 22.6048 71.705 20.4082 74.5859 20.4082C74.9022 20.4082 75.1609 20.667 75.1609 20.9832C75.1609 21.2995 74.9022 21.5583 74.5859 21.5583C72.1478 21.5583 70.1639 23.5421 70.1639 25.9802C70.1639 26.2965 69.9052 26.5553 69.5889 26.5553H68.5768C66.3917 26.5553 64.6149 28.3321 64.6149 30.5172V32.7713C64.6149 33.0876 64.3561 33.3463 64.0399 33.3463Z" fill="#5E5E5E"/>
<path d="M100.203 53.5122C99.9159 53.5122 99.6744 53.2994 99.6341 53.0177L97.3168 36.5891C97.058 34.7375 95.4479 33.3459 93.5791 33.3459H74.4709C72.602 33.3459 70.9977 34.7433 70.7332 36.5891L68.4158 53.0177C68.3756 53.2994 68.1341 53.5122 67.8466 53.5122C65.4314 53.5122 63.4648 51.5456 63.4648 49.1305V35.0653C63.4648 34.749 63.7236 34.4902 64.0399 34.4902C64.3561 34.4902 64.6149 34.749 64.6149 35.0653V49.1305C64.6149 50.7463 65.8052 52.0861 67.352 52.3219L69.5946 36.4223C69.9339 34.0072 72.0328 32.1844 74.4709 32.1844H93.5791C96.0172 32.1844 98.1161 34.0072 98.4553 36.4223L100.698 52.3219C102.245 52.0804 103.435 50.7405 103.435 49.1305V30.511C103.435 28.3259 101.658 26.5491 99.4731 26.5491C99.3121 26.5491 99.1626 26.4858 99.0534 26.3708C98.9441 26.2558 98.8866 26.1006 98.8981 25.9453V25.8418C98.9096 25.7728 98.9154 25.7038 98.9154 25.6348C98.9154 22.6274 96.4715 20.1835 93.4641 20.1835C90.9857 20.1835 88.8178 21.8684 88.1911 24.2777C88.1278 24.5192 87.9151 24.6918 87.6678 24.709C87.4205 24.7263 87.1848 24.571 87.0985 24.3352C86.5522 22.8919 85.1607 21.9259 83.6311 21.9259C81.8773 21.9259 80.3477 23.1737 79.9969 24.8988C79.9452 25.1633 79.7152 25.353 79.4449 25.3588C79.1804 25.3645 78.9389 25.1805 78.8756 24.9218C78.6283 23.9155 78.0246 23.0184 77.1793 22.4031C76.9205 22.2134 76.8688 21.8569 77.0528 21.5981C77.2425 21.3393 77.599 21.2876 77.8578 21.4716C78.5018 21.9431 79.0309 22.5354 79.4219 23.2139C80.2729 21.7419 81.8658 20.7701 83.6311 20.7701C85.1837 20.7701 86.627 21.5291 87.5298 22.7482C88.6166 20.5055 90.9052 19.022 93.4641 19.022C97.0408 19.022 99.9562 21.8799 100.065 25.4278C102.607 25.7211 104.591 27.8889 104.591 30.5053V49.1247C104.591 51.5398 102.624 53.5064 100.209 53.5064L100.203 53.5122Z" fill="#5E5E5E"/>
<path d="M72.1844 45.393C72.1844 47.1986 70.7181 48.6649 68.9125 48.6649C67.1069 48.6649 65.6406 47.1986 65.6406 45.393C65.6406 43.5874 67.1069 42.1211 68.9125 42.1211C70.7181 42.1211 72.1844 43.5874 72.1844 45.393Z" fill="white"/>
<path d="M68.4572 49.2112C68.4572 49.2112 68.4055 49.2112 68.3767 49.2112C66.4906 48.9467 65.0703 47.3079 65.0703 45.4046C65.0703 43.2827 66.7954 41.5576 68.9172 41.5576C69.1013 41.5576 69.2795 41.5691 69.452 41.5921C69.7683 41.6381 69.9868 41.9256 69.9408 42.2419C69.8948 42.5582 69.6015 42.7767 69.291 42.7307C69.1703 42.7134 69.0438 42.7019 68.9115 42.7019C67.4279 42.7019 66.2146 43.9095 66.2146 45.3988C66.2146 46.7329 67.2094 47.8829 68.532 48.0669C68.8482 48.1129 69.0668 48.4005 69.0208 48.7167C68.9805 49.0042 68.7332 49.2112 68.4515 49.2112H68.4572Z" fill="#5E5E5E"/>
<path d="M95.8555 45.393C95.8555 47.1986 97.3218 48.6649 99.1274 48.6649C100.933 48.6649 102.399 47.1986 102.399 45.393C102.399 43.5874 100.933 42.1211 99.1274 42.1211C97.3218 42.1211 95.8555 43.5874 95.8555 45.393Z" fill="white"/>
<path d="M99.5833 49.2112C99.3016 49.2112 99.0543 49.0042 99.0141 48.7167C98.9681 48.4005 99.1866 48.1129 99.5028 48.0669C100.825 47.8829 101.82 46.7329 101.82 45.3988C101.82 43.9152 100.613 42.7019 99.1233 42.7019C98.9968 42.7019 98.8703 42.7134 98.7438 42.7307C98.4333 42.7767 98.14 42.5582 98.094 42.2419C98.048 41.9256 98.2665 41.6381 98.5828 41.5921C98.761 41.5691 98.9393 41.5576 99.1176 41.5576C101.239 41.5576 102.964 43.2827 102.964 45.4046C102.964 47.3137 101.544 48.9467 99.6581 49.2112C99.6293 49.2112 99.6063 49.2112 99.5776 49.2112H99.5833Z" fill="#5E5E5E"/>
<path d="M78.3597 44.3464C78.3597 45.2204 77.6524 45.9334 76.7726 45.9334C75.8928 45.9334 75.1855 45.2204 75.1855 44.3464C75.1855 43.4723 75.8928 42.7593 76.7726 42.7593C77.6524 42.7593 78.3597 43.4666 78.3597 44.3464Z" fill="#5E5E5E"/>
<path d="M92.8714 44.3464C92.8714 45.2204 92.1641 45.9334 91.2843 45.9334C90.4045 45.9334 89.6973 45.2204 89.6973 44.3464C89.6973 43.4723 90.4045 42.7593 91.2843 42.7593C92.1641 42.7593 92.8714 43.4666 92.8714 44.3464Z" fill="#5E5E5E"/>
<path d="M75.4021 72.5059H92.653C95.6719 72.5059 98.1272 74.9555 98.1272 77.9801V115H69.9336V77.9801C69.9336 74.9612 72.3832 72.5059 75.4079 72.5059H75.4021Z" fill="white"/>
<path d="M69.9305 113.873C69.6142 113.873 69.3555 113.614 69.3555 113.298V77.8645C69.3555 74.5926 72.0178 71.9302 75.2898 71.9302H92.7649C96.0368 71.9302 98.6992 74.5926 98.6992 77.8645V110.469C98.6992 110.785 98.4404 111.044 98.1241 111.044C97.8079 111.044 97.5491 110.785 97.5491 110.469V77.8645C97.5491 75.2251 95.4043 73.0802 92.7649 73.0802H75.2898C72.6504 73.0802 70.5055 75.2251 70.5055 77.8645V113.298C70.5055 113.614 70.2468 113.873 69.9305 113.873Z" fill="#5E5E5E"/>
<path d="M144.112 113.298H96.9824V44.8752C96.9824 31.8623 107.534 21.3105 120.547 21.3105C133.56 21.3105 144.112 31.8623 144.112 44.8752V113.298Z" fill="#95B8FF"/>
<path d="M144.113 81.7343C143.796 81.7343 143.538 81.4755 143.538 81.1592V44.8692C143.538 32.1898 133.222 21.8795 120.548 21.8795C107.874 21.8795 97.5583 32.1956 97.5583 44.8692V70.5845C97.5583 70.9007 97.2995 71.1595 96.9832 71.1595C96.667 71.1595 96.4082 70.9007 96.4082 70.5845V44.8692C96.4082 31.5573 107.236 20.7295 120.548 20.7295C133.86 20.7295 144.688 31.5573 144.688 44.8692V81.1592C144.688 81.4755 144.429 81.7343 144.113 81.7343Z" fill="#5E5E5E"/>
<path d="M96.9832 76.2763C96.667 76.2763 96.4082 76.0175 96.4082 75.7012V73.0618C96.4082 72.7456 96.667 72.4868 96.9832 72.4868C97.2995 72.4868 97.5583 72.7456 97.5583 73.0618V75.7012C97.5583 76.0175 97.2995 76.2763 96.9832 76.2763Z" fill="#5E5E5E"/>
<path d="M96.9832 113.873C96.667 113.873 96.4082 113.614 96.4082 113.298V82.7982C96.4082 82.4819 96.667 82.2231 96.9832 82.2231C97.2995 82.2231 97.5583 82.4819 97.5583 82.7982V113.298C97.5583 113.614 97.2995 113.873 96.9832 113.873Z" fill="#5E5E5E"/>
<path d="M144.112 113.872C143.796 113.872 143.537 113.613 143.537 113.297V84.8504C143.537 84.5342 143.796 84.2754 144.112 84.2754C144.428 84.2754 144.687 84.5342 144.687 84.8504V113.297C144.687 113.613 144.428 113.872 144.112 113.872Z" fill="#5E5E5E"/>
<path d="M125.24 71.2227H115.85V77.847H125.24V71.2227Z" fill="white"/>
<path d="M125.816 78.4218H115.275V70.6475H125.816V78.4218ZM116.425 77.2718H124.666V71.7975H116.425V77.2718Z" fill="#5E5E5E"/>
<path d="M135.385 48.3883C130.198 48.3883 125.995 44.1791 125.995 38.998H107.818C106.657 38.998 105.708 39.9411 105.708 41.1084V48.394C104.195 48.394 102.965 49.6188 102.965 51.1369C102.965 52.655 104.19 53.8798 105.708 53.8798V57.1344C105.708 65.2193 112.045 72.0507 120.129 72.2749C128.513 72.505 135.385 65.7771 135.385 57.445V53.8798C136.897 53.8798 138.128 52.655 138.128 51.1369C138.128 49.6188 136.903 48.394 135.385 48.394V48.3883Z" fill="white"/>
<path d="M120.556 72.8513C120.412 72.8513 120.263 72.8513 120.119 72.8455C111.861 72.6213 105.139 65.5714 105.139 57.13V54.3986C103.581 54.1283 102.396 52.7655 102.396 51.1324C102.396 49.4994 103.581 48.1365 105.139 47.8663V41.8745C105.139 39.9711 106.686 38.4243 108.59 38.4243H126.571V38.9993C126.571 43.8583 130.527 47.8145 135.386 47.8145H135.961V47.8663C137.519 48.1365 138.704 49.4994 138.704 51.1324C138.704 52.7655 137.519 54.1283 135.961 54.3986V57.4348C135.961 61.6325 134.305 65.5542 131.297 68.4811C128.394 71.3044 124.593 72.8455 120.556 72.8455V72.8513ZM105.714 48.9703C104.518 48.9703 103.547 49.9421 103.547 51.1382C103.547 52.3343 104.518 53.3061 105.714 53.3061H106.289V57.1357C106.289 64.9561 112.505 71.4885 120.148 71.7012C124.041 71.8047 127.709 70.3729 130.492 67.6703C133.276 64.9619 134.811 61.3335 134.811 57.4463V53.3061H135.386C136.582 53.3061 137.554 52.3343 137.554 51.1382C137.554 49.9421 136.582 48.9703 135.386 48.9703L134.811 48.9473C129.774 48.6598 125.725 44.6116 125.438 39.5744H108.59C107.319 39.5744 106.289 40.6037 106.289 41.8745V48.9646H105.714V48.9703Z" fill="#5E5E5E"/>
<path d="M116.644 62.4028C116.644 64.5592 118.393 66.3073 120.549 66.3073C122.705 66.3073 124.453 64.5592 124.453 62.4028H116.639H116.644Z" fill="#BFD4FF"/>
<path d="M105.887 114.707V86.5253C105.887 81.7296 109.774 77.8481 114.564 77.8481H126.536C131.332 77.8481 135.213 81.7353 135.213 86.5253V113.293L105.887 114.707Z" fill="white"/>
<path d="M135.213 113.873C134.897 113.873 134.638 113.614 134.638 113.298V86.5305C134.638 82.0626 131.004 78.4284 126.536 78.4284H114.564C111.982 78.4284 109.618 79.6129 108.072 81.683C107.882 81.9361 107.52 81.9878 107.267 81.798C107.013 81.6083 106.962 81.246 107.152 80.993C108.917 78.6296 111.619 77.2783 114.564 77.2783H126.536C131.636 77.2783 135.788 81.43 135.788 86.5305V113.298C135.788 113.614 135.529 113.873 135.213 113.873Z" fill="#5E5E5E"/>
<path d="M105.886 113.872C105.569 113.872 105.311 113.613 105.311 113.297V86.5291C105.311 86.2129 105.569 85.9541 105.886 85.9541C106.202 85.9541 106.461 86.2129 106.461 86.5291V113.297C106.461 113.613 106.202 113.872 105.886 113.872Z" fill="#5E5E5E"/>
<path d="M122.936 86.5239H117.611C115.677 86.5239 114.109 88.0918 114.109 90.0258V105.063C114.109 106.997 115.677 108.565 117.611 108.565H122.936C124.87 108.565 126.438 106.997 126.438 105.063V90.0258C126.438 88.0918 124.87 86.5239 122.936 86.5239Z" fill="white"/>
<path d="M122.943 109.146H117.612C115.364 109.146 113.535 107.317 113.535 105.069V90.0262C113.535 87.7778 115.364 85.9492 117.612 85.9492H122.943C125.191 85.9492 127.02 87.7778 127.02 90.0262V105.069C127.02 107.317 125.191 109.146 122.943 109.146ZM117.612 87.105C116.002 87.105 114.685 88.4161 114.685 90.0319V105.075C114.685 106.685 115.996 108.002 117.612 108.002H122.943C124.553 108.002 125.87 106.69 125.87 105.075V90.0319C125.87 88.4218 124.558 87.105 122.943 87.105H117.612Z" fill="#5E5E5E"/>
<path d="M123.093 92.3784C123.093 93.4767 122.201 94.3622 121.109 94.3622C120.016 94.3622 119.125 93.4709 119.125 92.3784C119.125 91.2858 120.016 90.3945 121.109 90.3945C121.718 90.3945 122.265 90.6705 122.627 91.1018C122.914 91.4468 123.093 91.8896 123.093 92.3784Z" fill="#EAF0FF"/>
<path d="M120.274 94.1031C118.859 94.1031 117.715 92.953 117.715 91.5442C117.715 90.1354 118.865 88.9854 120.274 88.9854C120.59 88.9854 120.849 89.2441 120.849 89.5604C120.849 89.8766 120.59 90.1354 120.274 90.1354C119.497 90.1354 118.865 90.7679 118.865 91.5442C118.865 92.3205 119.497 92.953 120.274 92.953C121.05 92.953 121.683 92.3205 121.683 91.5442C121.683 91.228 121.941 90.9692 122.258 90.9692C122.574 90.9692 122.833 91.228 122.833 91.5442C122.833 92.953 121.683 94.1031 120.274 94.1031Z" fill="#5E5E5E"/>
<path d="M120.987 96.5295C120.987 96.9206 120.671 97.2368 120.28 97.2368C119.889 97.2368 119.572 96.9206 119.572 96.5295C119.572 96.1385 119.889 95.8223 120.28 95.8223C120.671 95.8223 120.987 96.1385 120.987 96.5295Z" fill="#5E5E5E"/>
<path d="M126.437 92.3783V97.2431H125.218C122.711 97.2431 120.566 99.2039 120.52 101.705C120.474 104.258 122.527 106.34 125.069 106.34H127.432C128.415 106.34 129.209 105.546 129.209 104.563V94.1494C129.209 93.1661 128.415 92.3726 127.432 92.3726H126.437V92.3783Z" fill="white"/>
<path d="M127.433 106.915H125.07C123.684 106.915 122.385 106.369 121.413 105.38C120.441 104.391 119.918 103.08 119.946 101.694C119.998 98.9221 122.362 96.668 125.219 96.668H125.863V92.3783C125.863 92.062 126.122 91.8032 126.439 91.8032H127.433C128.727 91.8032 129.785 92.8555 129.785 94.1551V104.569C129.785 105.863 128.733 106.921 127.433 106.921V106.915ZM125.219 97.818C122.983 97.818 121.137 99.5661 121.096 101.717C121.079 102.792 121.482 103.81 122.235 104.575C122.988 105.339 123.995 105.765 125.07 105.765H127.433C128.095 105.765 128.635 105.224 128.635 104.563V94.1493C128.635 93.4881 128.095 92.9475 127.433 92.9475H127.014V97.2372C127.014 97.5535 126.755 97.8123 126.439 97.8123H125.219V97.818Z" fill="#5E5E5E"/>
<path d="M66.1321 68.6583C64.7521 68.6583 63.625 67.5312 63.625 66.1512C63.625 64.7711 64.7521 63.644 66.1321 63.644C67.5122 63.644 68.6392 64.7711 68.6392 66.1512C68.6392 67.5312 67.5122 68.6583 66.1321 68.6583ZM66.1321 64.7941C65.3846 64.7941 64.7751 65.4036 64.7751 66.1512C64.7751 66.8987 65.3846 67.5082 66.1321 67.5082C66.8797 67.5082 67.4892 66.8987 67.4892 66.1512C67.4892 65.4036 66.8797 64.7941 66.1321 64.7941Z" fill="#5E5E5E"/>
<path d="M68.1753 20.2588C67.1977 20.2588 66.3984 19.4595 66.3984 18.4819C66.3984 17.5044 67.1977 16.7051 68.1753 16.7051C69.1528 16.7051 69.9521 17.5044 69.9521 18.4819C69.9521 19.4595 69.1528 20.2588 68.1753 20.2588ZM68.1753 17.8551C67.8303 17.8551 67.5485 18.1369 67.5485 18.4819C67.5485 18.8269 67.8303 19.1087 68.1753 19.1087C68.5203 19.1087 68.8021 18.8269 68.8021 18.4819C68.8021 18.1369 68.5203 17.8551 68.1753 17.8551Z" fill="#5E5E5E"/>
<path d="M193.544 17.0028C192.037 17.0028 190.812 15.778 190.812 14.2714C190.812 12.7648 192.037 11.54 193.544 11.54C195.05 11.54 196.275 12.7648 196.275 14.2714C196.275 15.778 195.05 17.0028 193.544 17.0028ZM193.544 12.6901C192.67 12.6901 191.963 13.3974 191.963 14.2714C191.963 15.1455 192.67 15.8528 193.544 15.8528C194.418 15.8528 195.125 15.1455 195.125 14.2714C195.125 13.3974 194.418 12.6901 193.544 12.6901Z" fill="#5E5E5E"/>
<path d="M73.6958 4.88774C72.3503 4.88774 71.252 3.78944 71.252 2.44387C71.252 1.0983 72.3503 0 73.6958 0C75.0414 0 76.1397 1.0983 76.1397 2.44387C76.1397 3.78944 75.0414 4.88774 73.6958 4.88774ZM73.6958 1.15006C72.9828 1.15006 72.402 1.73084 72.402 2.44387C72.402 3.15691 72.9828 3.73768 73.6958 3.73768C74.4089 3.73768 74.9896 3.15691 74.9896 2.44387C74.9896 1.73084 74.4089 1.15006 73.6958 1.15006Z" fill="#5E5E5E"/>
<path d="M195.94 81.7686C194.479 81.7686 193.289 80.5783 193.289 79.1177C193.289 77.6571 194.479 76.4668 195.94 76.4668C197.401 76.4668 198.591 77.6571 198.591 79.1177C198.591 80.5783 197.401 81.7686 195.94 81.7686ZM195.94 77.6111C195.112 77.6111 194.439 78.2839 194.439 79.1119C194.439 79.94 195.112 80.6128 195.94 80.6128C196.768 80.6128 197.441 79.94 197.441 79.1119C197.441 78.2839 196.768 77.6111 195.94 77.6111Z" fill="#5E5E5E"/>
<path d="M206.022 97.0137C204.561 97.0137 203.371 95.8234 203.371 94.3628C203.371 92.9022 204.561 91.7119 206.022 91.7119C207.483 91.7119 208.679 92.9022 208.679 94.3628C208.679 95.8234 207.488 97.0137 206.022 97.0137ZM206.022 92.8562C205.194 92.8562 204.521 93.529 204.521 94.357C204.521 95.1851 205.194 95.8579 206.022 95.8579C206.85 95.8579 207.529 95.1851 207.529 94.357C207.529 93.529 206.856 92.8562 206.022 92.8562Z" fill="#677089"/>
<path d="M37.9043 106.955C36.8865 106.955 36.0527 106.127 36.0527 105.104C36.0527 104.08 36.8808 103.252 37.9043 103.252C38.9279 103.252 39.7559 104.08 39.7559 105.104C39.7559 106.127 38.9279 106.955 37.9043 106.955ZM37.9043 104.402C37.5191 104.402 37.2028 104.718 37.2028 105.104C37.2028 105.489 37.5191 105.805 37.9043 105.805C38.2896 105.805 38.6059 105.489 38.6059 105.104C38.6059 104.718 38.2896 104.402 37.9043 104.402Z" fill="#5E5E5E"/>
<path d="M48.0627 58.6532C48.9106 58.6532 49.598 57.9658 49.598 57.1178C49.598 56.2699 48.9106 55.5825 48.0627 55.5825C47.2147 55.5825 46.5273 56.2699 46.5273 57.1178C46.5273 57.9658 47.2147 58.6532 48.0627 58.6532Z" fill="#5E5E5E"/>
<path d="M36.371 73.8335C36.371 74.5753 35.773 75.1733 35.0312 75.1733C34.2894 75.1733 33.6914 74.5753 33.6914 73.8335C33.6914 73.0917 34.2894 72.4937 35.0312 72.4937C35.773 72.4937 36.371 73.0917 36.371 73.8335Z" fill="#5E5E5E"/>
<path d="M175.486 103.828C175.486 104.57 174.888 105.168 174.146 105.168C173.405 105.168 172.807 104.57 172.807 103.828C172.807 103.086 173.405 102.488 174.146 102.488C174.888 102.488 175.486 103.086 175.486 103.828Z" fill="#5E5E5E"/>
<path d="M63.084 83.1082C63.084 78.9795 66.4306 75.6328 70.5594 75.6328C74.6881 75.6328 78.0347 78.9795 78.0347 83.1082C78.0347 85.8051 76.6029 88.1627 74.458 89.4738V94.6087H66.9194V89.629C64.6308 88.3524 63.084 85.9086 63.084 83.1024V83.1082Z" fill="white"/>
<path d="M65.2762 83.6897C64.9599 83.6897 64.7012 83.4309 64.7012 83.1147C64.7012 81.4758 65.397 79.8945 66.6103 78.7905C66.846 78.5777 67.2083 78.595 67.4211 78.825C67.6338 79.0607 67.6166 79.423 67.3866 79.6358C66.4148 80.5271 65.8512 81.7921 65.8512 83.1147C65.8512 83.4309 65.5925 83.6897 65.2762 83.6897Z" fill="#5E5E5E"/>
<path d="M68.5038 78.8185C68.2795 78.8185 68.0667 78.6862 67.9747 78.4677C67.8482 78.1744 67.9862 77.8352 68.2795 77.7144C69.004 77.4096 69.7688 77.2544 70.5624 77.2544C70.8786 77.2544 71.1374 77.5132 71.1374 77.8294C71.1374 78.1457 70.8786 78.4045 70.5624 78.4045C69.9241 78.4045 69.3088 78.531 68.728 78.7725C68.6533 78.8012 68.5785 78.8185 68.5038 78.8185Z" fill="#5E5E5E"/>
<path d="M74.4589 95.1894H66.9202C66.604 95.1894 66.3452 94.9306 66.3452 94.6143V89.9624C63.9703 88.5018 62.5098 85.9027 62.5098 83.108C62.5098 78.6688 66.1209 75.0576 70.5602 75.0576C72.9235 75.0576 75.1604 76.0927 76.6957 77.8925C76.9027 78.134 76.874 78.4963 76.6325 78.7033C76.391 78.9103 76.0287 78.8816 75.8217 78.64C74.5049 77.0932 72.59 76.2077 70.5659 76.2077C66.7592 76.2077 63.6656 79.3013 63.6656 83.108C63.6656 85.6036 65.0226 87.9095 67.2077 89.1343C67.3918 89.2378 67.501 89.4276 67.501 89.6346V94.0393H73.8896V89.4793C73.8896 89.2781 73.9931 89.0941 74.1656 88.9906C76.2299 87.7197 77.4663 85.5231 77.4663 83.1138C77.4663 82.1247 77.2592 81.1644 76.8567 80.2674C76.7245 79.9799 76.8567 79.6348 77.1442 79.5083C77.4318 79.3761 77.7768 79.5083 77.9033 79.7959C78.3748 80.8424 78.6163 81.958 78.6163 83.1138C78.6163 85.8221 77.288 88.2948 75.0396 89.7956V94.6201C75.0396 94.9364 74.7809 95.1951 74.4646 95.1951L74.4589 95.1894Z" fill="#5E5E5E"/>
<path d="M74.2288 96.9445H66.8914C66.5752 96.9445 66.3164 96.6857 66.3164 96.3695C66.3164 96.0532 66.5752 95.7944 66.8914 95.7944H74.2288C74.5451 95.7944 74.8038 96.0532 74.8038 96.3695C74.8038 96.6857 74.5451 96.9445 74.2288 96.9445Z" fill="#5E5E5E"/>
<path d="M73.0191 98.7555H68.1141C67.7978 98.7555 67.5391 98.4968 67.5391 98.1805C67.5391 97.8642 67.7978 97.6055 68.1141 97.6055H73.0191C73.3354 97.6055 73.5941 97.8642 73.5941 98.1805C73.5941 98.4968 73.3354 98.7555 73.0191 98.7555Z" fill="#5E5E5E"/>
<path d="M72.3961 100.751H68.7274C68.4111 100.751 68.1523 100.492 68.1523 100.176C68.1523 99.8593 68.4111 99.6006 68.7274 99.6006H72.3961C72.7123 99.6006 72.9711 99.8593 72.9711 100.176C72.9711 100.492 72.7123 100.751 72.3961 100.751Z" fill="#5E5E5E"/>
<path d="M67.8178 89.4177V92.3734H69.6636C71.0897 92.3734 72.2455 93.5292 72.2455 94.9553V98.6872C72.2455 100.113 71.0897 101.269 69.6636 101.269H67.2197C66.1099 101.269 65.2129 100.372 65.2129 99.2622V89.4235C65.2129 88.7047 65.7994 88.1182 66.5182 88.1182C67.237 88.1182 67.8235 88.7047 67.8235 89.4235L67.8178 89.4177Z" fill="white"/>
<path d="M69.6644 101.837H67.2205C65.7945 101.837 64.6387 100.676 64.6387 99.2552V89.4165C64.6387 88.3814 65.484 87.5361 66.519 87.5361C67.5541 87.5361 68.3994 88.3814 68.3994 89.4165V91.7971H69.6702C71.4125 91.7971 72.8271 93.2117 72.8271 94.954V98.6859C72.8271 100.428 71.4125 101.843 69.6702 101.843L69.6644 101.837ZM66.5133 88.6804C66.1107 88.6804 65.783 89.0082 65.783 89.4107V99.2495C65.783 100.043 66.427 100.681 67.2148 100.681H69.6587C70.7627 100.681 71.6655 99.7842 71.6655 98.6744V94.9425C71.6655 93.8384 70.7685 92.9356 69.6587 92.9356H67.8128C67.4966 92.9356 67.2378 92.6769 67.2378 92.3606V89.405C67.2378 89.0025 66.91 88.6747 66.5075 88.6747L66.5133 88.6804Z" fill="#5E5E5E"/>
<path d="M163.578 105.184H169.857V81.7114L166.718 73.8335L163.578 81.7114V105.184Z" fill="white"/>
<path d="M169.856 105.758H163.577C163.261 105.758 163.002 105.5 163.002 105.183V81.7049C163.002 81.6301 163.013 81.5611 163.042 81.4921L166.182 73.6142C166.268 73.3957 166.481 73.252 166.717 73.252C166.952 73.252 167.165 73.3957 167.251 73.6142L170.391 81.4921C170.42 81.5611 170.431 81.6301 170.431 81.7049V105.183C170.431 105.5 170.173 105.758 169.856 105.758ZM164.152 104.608H169.281V81.8141L166.717 75.3796L164.152 81.8141V104.608Z" fill="#5E5E5E"/>
<path d="M169.859 102.861H163.764V105.184L170.089 105.345L169.859 102.861Z" fill="#5E5E5E"/>
<path d="M168.442 78.1576H165.279L166.717 74.2646L168.442 78.1576Z" fill="#5E5E5E"/>
<path d="M170.019 86.6449V91.5097H168.8C166.293 91.5097 164.148 93.4705 164.102 95.9719C164.056 98.525 166.109 100.607 168.651 100.607H171.014C171.997 100.607 172.791 99.8131 172.791 98.8298V88.416C172.791 87.4327 171.997 86.6392 171.014 86.6392H170.019V86.6449Z" fill="white"/>
<path d="M171.013 101.181H168.65C167.264 101.181 165.964 100.635 164.992 99.6461C164.021 98.6571 163.503 97.346 163.526 95.9602C163.578 93.1886 165.941 90.9287 168.799 90.9287H169.443V86.639C169.443 86.3227 169.702 86.064 170.018 86.064H171.013C172.307 86.064 173.365 87.1163 173.365 88.4158V98.8296C173.365 100.123 172.313 101.181 171.013 101.181ZM168.799 92.0845C166.562 92.0845 164.716 93.8326 164.676 95.9832C164.653 97.0585 165.061 98.0763 165.815 98.8411C166.568 99.6059 167.574 100.031 168.65 100.031H171.013C171.674 100.031 172.215 99.4909 172.215 98.8296V88.4158C172.215 87.7545 171.674 87.214 171.013 87.214H170.593V91.5037C170.593 91.82 170.334 92.0788 170.018 92.0788H168.799V92.0845Z" fill="#5E5E5E"/>
</svg>
